<?xml version="1.0" encoding="UTF-8"?>
<svg id="_レイヤー_2" data-name="レイヤー 2" xmlns="http://www.w3.org/2000/svg" viewBox="0 0 393.31 100.82">
  <defs>
    <style>
      .cls-1 {
        fill: none;
      }

      .cls-2, .cls-3 {
        fill: #136988;
      }

      .cls-4 {
        isolation: isolate;
      }

      .cls-5 {
        fill: #3e3a39;
      }

      .cls-6 {
        fill: #fff;
      }

      .cls-3 {
        stroke: #fff;
        stroke-miterlimit: 10;
      }
    </style>
  </defs>
  <g id="_レイヤー_1-2" data-name="レイヤー 1">
    <g>
      <g>
        <path class="cls-2" d="M89.11,44.76H11.72C14.46,25.86,30.77,11.31,50.41,11.31s34.8,13.56,38.36,31.49h11.49C96.57,18.6,75.63,0,50.41,0,22.61,0,0,22.61,0,50.41c0,1.91.12,3.8.33,5.65h88.79c-2.75,18.9-19.05,33.46-38.69,33.46s-34.79-13.55-38.35-31.47H.58c3.7,24.18,24.63,42.77,49.84,42.77,27.8,0,50.41-22.61,50.41-50.41,0-1.91-.12-3.8-.33-5.65h-11.39Z"/>
        <g>
          <path class="cls-1" d="M7.42,58.06h-.15c3.63,20.53,21.58,36.17,43.13,36.17,23.84,0,43.29-19.15,43.8-42.88H6.61c.05,2.28.27,4.52.66,6.7h.15,0Z"/>
          <path class="cls-6" d="M96.1,49.47H6.61C7.12,25.74,26.56,6.59,50.41,6.59c21.56,0,39.53,15.66,43.14,36.2h1.91c-3.64-21.58-22.45-38.08-45.06-38.08C25.21,4.71,4.71,25.21,4.71,50.41c0,.32.02.62.03.94h89.48c-.51,23.73-19.95,42.88-43.8,42.88-21.56,0-39.51-15.65-43.13-36.17h-1.91c3.65,21.58,22.45,38.06,45.06,38.06,25.2,0,45.71-20.5,45.71-45.71,0-.31,0-.63-.01-.94h-.01,0Z"/>
        </g>
        <rect class="cls-3" x="44.76" y="27.33" width="11.31" height="46.15"/>
        <path class="cls-3" d="M38.16,73.49h-17.24c1.42-1.19,13.16-9.07,13.49-22.32.35-14.14-12.21-22.74-13.49-23.82h17.24c1.49,1.44,6.54,9.69,6.6,22.94.06,13.41-5.13,21.8-6.6,23.21h0Z"/>
        <path class="cls-3" d="M62.66,73.49h17.24c-1.42-1.19-13.16-9.07-13.49-22.32-.35-14.14,12.21-22.74,13.49-23.82h-17.24c-1.49,1.44-6.54,9.69-6.6,22.94-.06,13.41,5.13,21.8,6.6,23.21h0Z"/>
      </g>
      <g>
        <g class="cls-4">
          <path class="cls-5" d="M123.13,16.61c.75,0,1.02.27,1.02,1.02v2.09c0,.74-.27,1.01-1.02,1.01h-2.13c.45.46.85.83,1.35,1.17.62.42,1.06.65,1.64.9.2.09.41.18.64.28.17.08.28.17.28.36,0,.26-.19.56-.48.56-.15,0-.73-.23-1.6-.75-.97-.57-1.89-1.28-2.57-2.17v2.79c0,.34-.14.46-.47.46s-.44-.17-.44-.46v-2.78c-.65.81-1.55,1.54-2.46,2.08-.87.52-1.47.8-1.66.8-.29,0-.48-.29-.48-.55,0-.18.04-.26.31-.38.19-.09.42-.19.8-.35.92-.41,1.98-1.17,2.73-1.96h-2.06c-.75,0-1.02-.27-1.02-1.01v-2.09c0-.75.27-1.02,1.02-1.02h2.83v-.72h-4.24c-.32,0-.45-.11-.45-.43,0-.3.18-.4.45-.4h4.24v-.6c0-.32.19-.41.48-.41.27,0,.43.12.43.41v.6h4.29c.31,0,.45.11.45.44,0,.3-.19.38-.45.38h-4.29v.72h2.88-.02ZM119.33,17.36h-2.63c-.24,0-.35.12-.35.36v.59h2.98v-.96h0ZM116.35,19.02v.63c0,.23.11.35.35.35h2.63v-.98s-2.98,0-2.98,0ZM123.27,18.31v-.59c0-.24-.11-.36-.35-.36h-2.67v.96h3.03-.01ZM120.24,20h2.67c.24,0,.35-.12.35-.35v-.63h-3.03v.98h.01Z"/>
          <path class="cls-5" d="M132.17,15.02c-.7.74-1.56,1.43-2.44,1.95-.36.21-1.74.95-2.08.95-.29,0-.46-.32-.46-.57,0-.27.18-.36.4-.44.79-.29,1.42-.58,2.12-1.02.86-.55,1.25-.96,1.99-1.63.23-.21.36-.29.68-.29.51,0,.72.3,1.71,1.19.78.69,2.02,1.38,2.99,1.75.21.08.39.15.39.41s-.15.56-.48.56c-.36,0-1.54-.66-1.9-.87-.91-.55-1.76-1.22-2.51-1.98-.07-.07-.13-.12-.21-.12s-.13.07-.19.12h0ZM131.87,17.97h-2.22c-.3,0-.46-.12-.46-.44,0-.3.2-.4.46-.4h5.36c.3,0,.46.11.46.43,0,.3-.18.41-.46.41h-2.21v1.31h3.83c.3,0,.46.11.46.42s-.17.43-.46.43h-3.83v2.88h4.03c.32,0,.46.12.46.44s-.19.42-.46.42h-8.97c-.31,0-.45-.13-.45-.45,0-.3.18-.41.45-.41h4.02v-2.88h-3.85c-.3,0-.46-.12-.46-.44,0-.3.19-.41.46-.41h3.85v-1.31h0ZM129.97,21.03c.22.47.54,1.21.54,1.42,0,.26-.32.4-.55.4s-.31-.1-.41-.34c-.1-.25-.19-.58-.47-1.14-.07-.13-.19-.38-.19-.51,0-.26.31-.41.54-.41.26,0,.35.17.54.58ZM135.64,20.81c0,.24-.36,1.01-.48,1.25-.2.41-.4.75-.71.75-.22,0-.47-.14-.47-.4,0-.1.05-.2.1-.29.23-.42.41-.79.58-1.23.11-.26.19-.47.52-.47.23,0,.47.12.47.38h0Z"/>
          <path class="cls-5" d="M145,23.88c0,.36-.12.48-.5.48-.31,0-.45-.14-.45-.45v-5.51h-2.22c-.34,0-.51.17-.51.51v4.24c0,.33-.15.45-.48.45-.31,0-.45-.14-.45-.45v-4.4c0-.89.32-1.21,1.21-1.21h2.45v-1.34h-4.18c-.31,0-.45-.14-.45-.46,0-.3.17-.43.45-.43h4.18v-.87c0-.35.2-.43.52-.43.29,0,.44.13.44.43v.87h4.19c.33,0,.45.14.45.47,0,.3-.17.42-.45.42h-4.2v1.34h2.5c.88,0,1.21.32,1.21,1.21v3.52c0,1.14-.58,1.18-1.47,1.18h-.46c-.38,0-.71-.04-.71-.52,0-.42.29-.42.55-.42h.61c.37,0,.54-.11.54-.51v-3.09c0-.34-.15-.51-.5-.51h-2.26v5.48h-.01Z"/>
          <path class="cls-5" d="M156.02,19.19c0,.59-.48,1.08-1.08,1.08s-1.08-.48-1.08-1.08.47-1.08,1.08-1.08,1.08.48,1.08,1.08Z"/>
          <path class="cls-5" d="M165.17,14.48c0-.35.18-.45.51-.45s.46.14.46.45v8.69h2.73c.34,0,.51-.17.51-.51v-6.36c0-.36.17-.47.52-.47.33,0,.46.15.46.47v6.55c0,.88-.32,1.21-1.21,1.21h-6.98c-.89,0-1.21-.33-1.21-1.21v-6.56c0-.35.17-.46.51-.46.32,0,.45.15.45.46v6.37c0,.34.17.51.51.51h2.75v-8.69h-.01Z"/>
          <path class="cls-5" d="M179.16,14.85c0-.51.02-.8.47-.8.3,0,.45.15.45.46,0,.08.02.36.02.8.02.53.02,1.12.03,1.3h2.73c.27,0,.45.11.45.41s-.18.41-.45.41h-2.71c.06,1.44.22,3.36.77,4.69.14.34.53,1.09.96,1.09.18,0,.27-.19.33-.33.14-.35.22-.71.31-1.08.04-.22.12-.39.36-.39.3,0,.47.2.47.48,0,.44-.31,1.38-.52,1.77-.21.37-.54.61-.97.61-.75,0-1.19-.64-1.5-1.24-.56-1.06-.8-2.17-.96-3.36-.09-.75-.17-1.5-.19-2.24h-5.72c-.27,0-.46-.11-.46-.41s.19-.41.46-.41h5.69c0-.59-.04-1.18-.04-1.76h.02ZM176.05,18.03c0-.33.13-.45.46-.45.28,0,.43.12.43.41v1.26h1.47c.29,0,.46.12.46.42s-.18.43-.46.43h-1.47v2.44c.33-.04,1.86-.32,2.01-.32.26,0,.39.19.39.43,0,.42-.35.47-1.08.58-.87.17-3.95.64-4.71.64-.32,0-.48-.15-.48-.47,0-.35.24-.42.44-.44.1,0,.24-.02.33-.03v-4.19c0-.32.13-.46.46-.46.31,0,.44.17.44.46v4.09c.43-.04.87-.1,1.31-.15v-4.64h0ZM177.84,14.67c.27,0,.43.11.43.41s-.15.41-.43.41h-3.88c-.28,0-.43-.12-.43-.41s.15-.41.43-.41h3.88ZM181.84,14.63c.13.14.48.53.72.85.14.19.23.3.23.44,0,.24-.26.43-.48.43-.14,0-.21-.08-.3-.19-.24-.33-.51-.64-.78-.94-.26-.27-.37-.42-.37-.56,0-.22.22-.42.44-.42.13,0,.3.1.55.38h-.01Z"/>
          <path class="cls-5" d="M191.03,23.88c0,.36-.12.48-.5.48-.31,0-.45-.14-.45-.45v-5.51h-2.22c-.34,0-.51.17-.51.51v4.24c0,.33-.15.45-.48.45-.31,0-.45-.14-.45-.45v-4.4c0-.89.32-1.21,1.21-1.21h2.45v-1.34h-4.18c-.31,0-.45-.14-.45-.46,0-.3.17-.43.45-.43h4.18v-.87c0-.35.2-.43.52-.43.29,0,.44.13.44.43v.87h4.19c.33,0,.45.14.45.47,0,.3-.17.42-.45.42h-4.2v1.34h2.5c.88,0,1.21.32,1.21,1.21v3.52c0,1.14-.58,1.18-1.47,1.18h-.46c-.38,0-.71-.04-.71-.52,0-.42.29-.42.55-.42h.6c.37,0,.54-.11.54-.51v-3.09c0-.34-.15-.51-.5-.51h-2.26v5.48h0Z"/>
          <path class="cls-5" d="M202.05,19.19c0,.59-.48,1.08-1.08,1.08s-1.08-.48-1.08-1.08.47-1.08,1.08-1.08,1.08.48,1.08,1.08Z"/>
          <path class="cls-5" d="M208.45,23.17c-.33.25-1.46,1.04-1.85,1.04-.27,0-.47-.29-.47-.54s.15-.35.35-.45c2.41-1.16,3.65-2.86,4.08-5.49h-4.08c-.32,0-.48-.13-.48-.47,0-.32.19-.44.48-.44h4.14v-2.27c0-.35.19-.46.52-.46.31,0,.46.15.46.46v2.27h4.28c.32,0,.48.13.48.47,0,.32-.19.44-.48.44h-4.09c.3,1.3.65,2.37,1.5,3.42.71.9,1.61,1.52,2.62,2.04.19.1.34.2.34.44,0,.28-.22.55-.51.55-.46,0-1.84-1.08-2.21-1.42-1.14-1.06-1.84-2.21-2.3-3.69-.48,1.66-1.4,3.04-2.77,4.09h0Z"/>
          <path class="cls-5" d="M219.15,16.85c-.34-.27-.42-.4-.42-.55,0-.21.17-.44.39-.44.1,0,.17.04.3.14.23-.41.43-.83.61-1.25.22-.53.29-.69.54-.69.2,0,.47.15.47.37,0,.1-.13.44-.33.83-.21.41-.46.89-.68,1.29.18.18.36.35.54.54.43-.74.88-1.61.98-1.82.07-.14.15-.22.3-.22.21,0,.47.15.47.4,0,.12-.17.46-.41.88-.53.9-1.34,2.17-1.55,2.45.47,0,.95-.02,1.42-.05-.07-.18-.25-.56-.25-.73,0-.18.18-.28.33-.28.22,0,.3.18.54.79.19.46.36.97.36,1.13,0,.21-.21.32-.4.32-.22,0-.27-.2-.36-.56-.29.03-.58.07-.88.09v4.45c0,.25-.09.43-.37.43s-.37-.18-.37-.43v-4.39c-.14,0-.43.03-.72.04-.25,0-.48.03-.58.03-.27,0-.42-.15-.42-.43,0-.35.23-.38.83-.38.23-.32.44-.65.64-.99-.23-.28-.67-.74-.96-.97h-.02ZM218.68,23.2c0-.09.06-.32.17-.65.17-.51.23-1.3.29-1.89.02-.22.1-.35.34-.35.28,0,.39.13.39.4,0,.53-.18,1.65-.34,2.34-.09.35-.14.52-.4.52-.21,0-.44-.14-.44-.36h0ZM221.85,22.46c-.02-.26-.09-.71-.17-1.14-.03-.17-.1-.57-.1-.66,0-.22.1-.35.33-.35s.31.22.37.65c.07.42.24,1.32.24,1.72,0,.23-.09.41-.34.41s-.3-.1-.34-.62h0ZM222.85,15.56c0-.86.3-1.18,1.17-1.18h3.26c.86,0,1.16.32,1.16,1.18v7.61c0,.41-.08.66-.23.81-.19.19-.5.23-.94.23h-.42c-.4,0-.7-.07-.7-.5,0-.29.14-.42.42-.42h.63c.3,0,.41-.1.41-.37v-7.22c0-.33-.14-.5-.46-.5h-2.99c-.33,0-.47.15-.47.48v8.23c0,.29-.11.43-.41.43s-.41-.14-.41-.43v-8.37l-.02.02ZM227.06,19.02c.23,0,.38.13.38.37s-.15.37-.38.37h-1.89v1.65c0,.27.11.37.37.37h1.22c.27,0,.46.05.46.4,0,.39-.27.4-.46.4h-1.4c-.37,0-.62-.08-.77-.25-.13-.15-.19-.4-.19-.74v-1.83h-.18c-.24,0-.4-.13-.4-.37s.15-.37.4-.37h1.04v-1.13h-1.04c-.22,0-.4-.13-.4-.36s.18-.36.4-.36h.32c-.05-.32-.12-.63-.21-.95-.07-.23-.09-.32-.09-.38,0-.21.23-.28.41-.28.26,0,.31.12.4.51.09.36.15.74.22,1.1h.7c.12-.43.19-.75.23-.99.09-.45.13-.62.42-.62.19,0,.38.09.38.31,0,.11-.05.35-.13.62-.08.28-.17.56-.21.68h.39c.22,0,.38.14.38.36s-.17.36-.38.36h-1.03v1.13h1.04Z"/>
          <path class="cls-5" d="M239.12,15.55c1.04,0,1.42.37,1.42,1.42v5.68c0,1.05-.37,1.42-1.42,1.42h-5.93c-1.04,0-1.42-.37-1.42-1.42v-5.68c0-1.04.37-1.42,1.42-1.42h1.94c.11-.32.19-.57.24-.78.14-.55.23-.71.57-.71.21,0,.53.09.53.36,0,.18-.31.93-.4,1.13h3.05,0ZM239.59,19.24v-2.19c0-.44-.2-.65-.65-.65h-5.56c-.45,0-.65.21-.65.65v2.19h6.86ZM232.73,22.58c0,.44.2.65.65.65h5.56c.45,0,.65-.21.65-.65v-2.53h-6.85v2.53h0Z"/>
          <path class="cls-5" d="M248.9,20.85h3.61c.29,0,.45.11.45.42s-.19.4-.45.4h-3.61v1.41h4.27c.27,0,.45.11.45.41s-.18.42-.45.42h-9.45c-.29,0-.46-.11-.46-.42s.18-.41.46-.41h4.28v-1.41h-3.61c-.3,0-.45-.11-.45-.42s.19-.4.45-.4h3.61v-1.21h-2.63c-.87,0-1.18-.32-1.18-1.18v-2.78c0-.87.31-1.19,1.18-1.19h6.14c.86,0,1.17.32,1.17,1.19v2.78c0,.86-.31,1.18-1.17,1.18h-2.61v1.21ZM248,16.66v-1.34h-2.42c-.34,0-.5.17-.5.5v.85h2.92ZM245.08,18.35c0,.34.15.5.5.5h2.42v-1.45h-2.92v.96h0ZM251.78,15.82c0-.33-.15-.5-.5-.5h-2.39v1.34h2.88v-.85h0ZM248.9,17.39v1.45h2.39c.34,0,.5-.15.5-.5v-.96h-2.89Z"/>
          <path class="cls-5" d="M261.09,23.88c0,.36-.12.48-.5.48-.31,0-.45-.14-.45-.45v-5.51h-2.22c-.34,0-.51.17-.51.51v4.24c0,.33-.15.45-.48.45-.31,0-.45-.14-.45-.45v-4.4c0-.89.32-1.21,1.21-1.21h2.45v-1.34h-4.18c-.31,0-.45-.14-.45-.46,0-.3.17-.43.45-.43h4.18v-.87c0-.35.2-.43.52-.43.29,0,.44.13.44.43v.87h4.19c.33,0,.45.14.45.47,0,.3-.17.42-.45.42h-4.2v1.34h2.5c.88,0,1.21.32,1.21,1.21v3.52c0,1.14-.58,1.18-1.47,1.18h-.46c-.38,0-.71-.04-.71-.52,0-.42.29-.42.55-.42h.6c.37,0,.54-.11.54-.51v-3.09c0-.34-.15-.51-.5-.51h-2.25v5.48h-.01Z"/>
          <path class="cls-5" d="M272.12,19.19c0,.59-.48,1.08-1.08,1.08s-1.08-.48-1.08-1.08.47-1.08,1.08-1.08,1.08.48,1.08,1.08Z"/>
          <path class="cls-5" d="M278.29,22.61c-.35.41-1.5,1.54-2.02,1.54-.3,0-.47-.28-.47-.55,0-.22.12-.32.3-.43,1.12-.68,1.89-1.53,2.42-2.74.46-1.04.55-2.33.62-3.47h-2.87c-.32,0-.47-.14-.47-.47,0-.31.18-.44.47-.44h2.9c.02-.41.02-.81.02-1.23v-.22c0-.24.02-.52.5-.52s.47.25.47.51c0,.4,0,1.07-.03,1.46h2.35c.88,0,1.21.33,1.21,1.22v5.57c0,.34.18.37.43.37h.29c.35,0,.5-.02.56-.36.04-.24.07-.65.09-1.32,0-.45.03-.67.47-.67.41,0,.45.26.45.57,0,.53-.04,2.05-.4,2.42-.23.24-.65.26-1.13.26h-.42c-.76,0-1.28-.02-1.28-.96v-5.69c0-.35-.15-.51-.51-.51h-2.17c-.12,2.13-.31,3.96-1.78,5.64v.02Z"/>
          <path class="cls-5" d="M297.1,17.39c.31,0,.47.14.47.46s-.15.46-.47.46h-4.25v5.53c0,.34-.17.46-.5.46s-.46-.14-.46-.46v-5.53h-4.24c-.3,0-.44-.18-.44-.46s.14-.46.44-.46h4.24v-2.84c0-.33.15-.47.48-.47s.47.14.47.47v2.84h4.26Z"/>
          <path class="cls-5" d="M302.15,22.61c-.35.41-1.5,1.54-2.02,1.54-.3,0-.47-.28-.47-.55,0-.22.12-.32.3-.43,1.12-.68,1.89-1.53,2.42-2.74.46-1.04.55-2.33.62-3.47h-2.87c-.32,0-.47-.14-.47-.47,0-.31.18-.44.47-.44h2.9c.02-.41.02-.81.02-1.23v-.22c0-.24.02-.52.5-.52s.47.25.47.51c0,.4-.01,1.07-.03,1.46h2.35c.88,0,1.21.33,1.21,1.22v5.57c0,.34.18.37.43.37h.29c.35,0,.5-.02.56-.36.04-.24.07-.65.09-1.32.01-.45.03-.67.47-.67.41,0,.45.26.45.57,0,.53-.04,2.05-.4,2.42-.23.24-.65.26-1.13.26h-.42c-.76,0-1.28-.02-1.28-.96v-5.69c0-.35-.15-.51-.51-.51h-2.17c-.12,2.13-.31,3.96-1.78,5.64v.02Z"/>
          <path class="cls-5" d="M317.78,20.85h3.61c.29,0,.45.11.45.42s-.19.4-.45.4h-3.61v1.41h4.27c.27,0,.45.11.45.41s-.18.42-.45.42h-9.45c-.29,0-.46-.11-.46-.42s.18-.41.46-.41h4.28v-1.41h-3.61c-.3,0-.45-.11-.45-.42s.19-.4.45-.4h3.61v-1.21h-2.63c-.87,0-1.18-.32-1.18-1.18v-2.78c0-.87.31-1.19,1.18-1.19h6.14c.86,0,1.17.32,1.17,1.19v2.78c0,.86-.31,1.18-1.17,1.18h-2.61v1.21ZM316.88,16.66v-1.34h-2.42c-.34,0-.5.17-.5.5v.85h2.92ZM313.96,18.35c0,.34.15.5.5.5h2.42v-1.45h-2.92v.96h0ZM320.66,15.82c0-.33-.15-.5-.5-.5h-2.39v1.34h2.88v-.85h.01ZM317.78,17.39v1.45h2.39c.34,0,.5-.15.5-.5v-.96h-2.89Z"/>
          <path class="cls-5" d="M329.69,22.14c0,.74-.28,1.01-1.01,1.01h-2.73c-.75,0-1.02-.28-1.02-1.01v-6.7c0-.74.28-1.01,1.02-1.01h2.73c.73,0,1.01.28,1.01,1.01v6.7ZM326.92,15.25h-.77c-.24,0-.36.12-.36.36v2.78h1.13v-3.15h0ZM325.78,19.17v2.82c0,.24.12.36.36.36h.77v-3.18h-1.13,0ZM328.87,18.4v-2.78c0-.24-.11-.36-.35-.36h-.8v3.15h1.15ZM327.72,22.35h.8c.24,0,.35-.12.35-.36v-2.82h-1.15v3.18ZM330.33,15.8c-.31,0-.46-.13-.46-.45,0-.3.18-.43.46-.43h4.03c.3,0,.46.13.46.44s-.17.44-.45.44h-1.07v7.21c0,.94-.41,1.18-1.3,1.18h-1.01c-.3,0-.66,0-.66-.5,0-.43.27-.45.57-.45.26,0,.53,0,.89,0,.4,0,.59-.1.59-.53v-6.92h-2.06.01Z"/>
          <path class="cls-5" d="M340.89,19.19c0,.59-.48,1.08-1.08,1.08s-1.08-.48-1.08-1.08.47-1.08,1.08-1.08,1.08.48,1.08,1.08Z"/>
          <path class="cls-5" d="M348.84,19.54c.08.09.14.18.14.3,0,.21-.2.47-.43.47-.17,0-.29-.17-.48-.52-.17-.29-.32-.58-.45-.88v5.05c0,.32-.14.43-.45.43-.29,0-.4-.15-.4-.43v-4.76c-.18.57-.48,1.34-.76,1.88-.15.31-.25.47-.47.47-.26,0-.44-.25-.44-.51,0-.18.05-.29.15-.43.69-1.07,1.21-2.27,1.49-3.51h-1.06c-.29,0-.44-.12-.44-.42s.15-.43.44-.43h1.09v-1.84c0-.31.13-.42.43-.42s.42.14.42.42v1.84h.8c.3,0,.41.14.41.43s-.12.42-.41.42h-.8v.45c.33.77.71,1.34,1.22,1.98h0ZM349.02,23.42c.35-.12,1.06-.43,1.34-.63.19-.13.4-.24.54-.24.22,0,.41.22.41.43,0,.25-.33.42-1.02.78-.14.08-.45.23-.74.35-.22.09-.43.17-.54.17-.25,0-.41-.23-.41-.46s.14-.3.42-.4h0ZM351.67,17.74h-2.62c-.26,0-.4-.11-.4-.38,0-.25.18-.34.4-.34h1.25v-1.08h-.94c-.25,0-.41-.11-.41-.38s.15-.37.41-.37h.94v-.75c0-.28.14-.41.41-.41s.41.13.41.41v.75h1.9v-.75c0-.31.17-.41.44-.41s.41.14.41.41v.75h.92c.26,0,.42.12.42.4,0,.25-.18.36-.42.36h-.92v1.08h1.21c.24,0,.41.1.41.36s-.17.36-.41.36h-2.6v.77h1.56c.74,0,1.01.27,1.01,1.01v1.79c0,.74-.27,1.01-1.01,1.01h-3.89c-.75,0-1.02-.28-1.02-1.01v-1.79c0-.74.28-1.01,1.02-1.01h1.52v-.77h0ZM350.31,19.18c-.24,0-.36.12-.36.36v.51h1.73v-.87h-1.37ZM349.95,20.66v.63c0,.24.12.35.36.35h1.36v-.98h-1.73.01ZM351.12,15.94v1.08h1.9v-1.08h-1.9ZM352.49,20.05h1.74v-.51c0-.24-.11-.36-.35-.36h-1.39v.87h0ZM352.49,21.63h1.39c.24,0,.35-.11.35-.35v-.63h-1.74v.98h0ZM354.3,24.04c-.24-.12-.51-.25-.64-.33-.61-.33-.88-.48-.88-.74,0-.22.2-.43.42-.43.12,0,.25.08.59.29.28.17.76.4,1.06.52.41.17.53.21.53.44s-.17.48-.43.48c-.13,0-.4-.1-.65-.23Z"/>
          <path class="cls-5" d="M363.63,23.22h4.1c.25,0,.4.13.4.4,0,.29-.17.48-.46.48h-3.89c-1.08,0-2.01-.12-2.95-.72-.54-.34-.84-.73-1.12-1.29-.27.64-.6,1.27-1.06,1.8-.1.12-.2.22-.36.22-.25,0-.48-.19-.48-.45,0-.14.07-.23.15-.34.64-.78,1.1-1.71,1.34-2.67.06-.2.15-.3.36-.3.23,0,.46.13.46.39,0,.11-.03.24-.07.36.07.24.17.44.29.66.91-.33,1.68-.63,2.5-1.02.76-.38,1.5-.84,2.25-1.44.19-.14.58-.46.58-.61,0-.13-.11-.17-.22-.17h-6.79c-.29,0-.46-.12-.46-.42s.18-.43.46-.43h3.84v-.76c0-.3.14-.43.44-.43s.43.13.43.43v.76h2.75c.46,0,.86.13.86.67,0,.47-.36.8-.69,1.09-.97.84-2.06,1.53-3.21,2.08-.7.34-1.45.62-2.19.9.79.65,1.75.79,2.74.79v.02ZM360.38,14.5c0-.33.19-.41.47-.41s.43.12.43.41v.58h3.38v-.58c0-.32.18-.41.47-.41s.42.12.42.41v.58h2.11c.3,0,.45.1.45.42s-.17.41-.45.41h-2.11v.76c0,.32-.16.4-.46.4-.27,0-.43-.11-.43-.4v-.76h-3.38v.76c0,.31-.18.4-.47.4s-.43-.11-.43-.4v-.76h-2.1c-.3,0-.45-.11-.45-.43,0-.3.19-.4.45-.4h2.1v-.58h0Z"/>
          <path class="cls-5" d="M377.18,22.69c0,.45.25.51.64.51h1c.44,0,.65-.02.78-.44.07-.21.11-.54.15-1,.03-.3.08-.52.43-.52.3,0,.52.12.52.44,0,.45-.15,1.49-.35,1.87-.26.51-.76.54-1.27.54h-1.32c-.92,0-1.52-.03-1.52-1.22v-4.04h-1.44c-.03,1.4-.26,2.83-1.23,3.89-.54.59-1.3,1.07-2.04,1.34-.14.05-.39.14-.53.14-.3,0-.5-.29-.5-.56,0-.23.13-.32.33-.39,1.11-.36,2.08-.86,2.58-2,.35-.79.42-1.57.44-2.43h-2.99c-.31,0-.45-.12-.45-.43s.15-.44.45-.44h4.24v-3.45c0-.33.17-.45.48-.45s.47.13.47.45v3.45h4.28c.31,0,.44.13.44.45,0,.3-.15.42-.44.42h-3.17v3.86h.02ZM372.59,16.87c-.17-.32-.56-.99-.75-1.23-.11-.14-.33-.48-.33-.64,0-.25.28-.43.52-.43.14,0,.25.05.35.16.22.26.5.68.68.98.22.35.65,1.04.65,1.28,0,.28-.31.46-.55.46-.26,0-.37-.19-.57-.58ZM377.53,17.06c0-.15.15-.38.41-.73.17-.23.61-.92.75-1.21.23-.46.35-.61.62-.61.24,0,.53.18.53.44,0,.32-.76,1.44-1.1,1.92-.2.28-.43.59-.7.59-.22,0-.5-.18-.5-.42v.02Z"/>
          <path class="cls-5" d="M388.19,22.14c0,.74-.28,1.01-1.01,1.01h-2.73c-.75,0-1.02-.28-1.02-1.01v-6.7c0-.74.28-1.01,1.02-1.01h2.73c.73,0,1.01.28,1.01,1.01v6.7ZM385.41,15.25h-.77c-.24,0-.36.12-.36.36v2.78h1.13v-3.15h0ZM384.28,19.17v2.82c0,.24.12.36.36.36h.77v-3.18h-1.13,0ZM387.37,18.4v-2.78c0-.24-.11-.36-.35-.36h-.8v3.15h1.15ZM386.22,22.35h.8c.24,0,.35-.12.35-.36v-2.82h-1.15v3.18ZM388.82,15.8c-.31,0-.46-.13-.46-.45,0-.3.18-.43.46-.43h4.03c.3,0,.46.13.46.44s-.17.44-.45.44h-1.07v7.21c0,.94-.41,1.18-1.3,1.18h-1.01c-.3,0-.66,0-.66-.5,0-.43.27-.45.57-.45.26,0,.53,0,.89,0,.4,0,.59-.1.59-.53v-6.92h-2.06.01Z"/>
          <path class="cls-5" d="M124.56,32.53c0-.9.51-1.15,1.33-1.15s1.2.37,1.2,1.15v17.55h5.15c.6,0,.94-.37.94-.94v-12.85c0-.92.48-1.2,1.36-1.2.83,0,1.22.39,1.22,1.2v13.47c0,1.93-.78,2.69-2.71,2.69h-14.44c-1.93,0-2.71-.76-2.71-2.69v-13.47c0-.92.48-1.2,1.36-1.2.8,0,1.17.39,1.17,1.2v12.85c0,.58.37.94.97.94h5.17v-17.55h-.01Z"/>
          <path class="cls-5" d="M156.22,33.27c0-.97.02-1.91,1.24-1.91.55,0,1.08.28,1.17.85.12.71.12,3.54.14,4.44h5.2c.71,0,1.2.32,1.2,1.1s-.48,1.08-1.2,1.08h-5.13c.11,2.99.37,6.28,1.4,9.11.23.62.85,2.05,1.66,2.05.6,0,.92-1.26,1.1-2.02.14-.55.3-1.29,1.03-1.29.69,0,1.24.53,1.24,1.2,0,1.08-.62,2.83-1.17,3.75-.51.8-1.31,1.31-2.25,1.31-1.84,0-2.74-1.59-3.4-3.06-1.54-3.45-1.84-7.29-2.07-11.04h-11.61c-.71,0-1.22-.32-1.22-1.08s.51-1.1,1.22-1.1h11.54c-.05-1.13-.09-2.25-.09-3.38h0ZM149.8,40.05c0-.8.46-1.08,1.22-1.08.64,0,1.13.34,1.13,1.01v2.23h2.53c.74,0,1.2.34,1.2,1.13s-.46,1.13-1.2,1.13h-2.53v4.46c.8-.14,2.99-.57,3.63-.57.69,0,1.01.53,1.01,1.15,0,.39-.12.76-.46.97-.35.21-1.45.41-2.05.51-1.93.37-7.7,1.26-9.45,1.26-.85,0-1.26-.46-1.26-1.29,0-.69.34-.97.85-1.1.21-.05.46-.09.71-.12v-8.23c0-.8.39-1.2,1.22-1.2.78,0,1.15.44,1.15,1.2v8.03c.76-.09,1.52-.18,2.3-.28v-9.2h0ZM153.5,32.6c.69,0,1.08.34,1.08,1.06s-.39,1.06-1.08,1.06h-7.84c-.69,0-1.08-.34-1.08-1.06s.39-1.06,1.08-1.06h7.84ZM162.93,33.18c.6.67,1.29,1.43,1.29,1.95,0,.64-.69,1.13-1.29,1.13-.41,0-.6-.25-.87-.62-.44-.55-.87-1.06-1.36-1.56-.53-.55-.78-.83-.78-1.24,0-.58.55-1.1,1.13-1.1.71,0,1.45.97,1.89,1.45h0Z"/>
          <path class="cls-5" d="M173.48,38.21c-.62,0-1.06-.28-1.06-.96s.44-.97,1.06-.97h2.85c.02-.69.07-1.38.09-2.07h-2.39c-.67,0-1.06-.32-1.06-1.03s.39-1.01,1.06-1.01h7.22c1.89,0,2.39.51,2.39,2.37v1.75h.76c.53,0,.9.44.9.97s-.37.96-.9.96h-.76v1.75c0,1.86-.51,2.37-2.39,2.37h-3.75c-.18.6-.44,1.17-.69,1.72h4.37c1.82,0,2.55.74,2.55,2.55v3.38c0,1.82-.74,2.55-2.55,2.55h-4.12c-1.84,0-2.55-.74-2.55-2.55v-2.48c-.51.6-.83.81-1.17.81-.62,0-1.13-.69-1.13-1.27,0-.37.21-.64.44-.9,1.03-1.15,2-2.37,2.58-3.82h-1.2c-.67,0-1.06-.23-1.06-.94s.39-.97,1.06-.97h1.77c.16-.74.28-1.47.37-2.21h-2.69ZM177.66,46.08c-.57,0-.9.32-.9.9v2.53c0,.58.32.9.9.9h2.83c.57,0,.9-.23.9-.9v-2.53c0-.58-.32-.87-.9-.9h-2.83ZM177.96,40.42h2.78c.39,0,.6-.23.6-.6v-1.61h-3.06c-.09.74-.18,1.47-.32,2.21ZM181.34,36.28v-1.47c0-.37-.21-.6-.6-.6h-2.21c-.02.69-.07,1.38-.09,2.07h2.9ZM187.78,51.82c0,.78-.34,1.2-1.17,1.2-.76,0-1.06-.48-1.06-1.2v-17.43c0-1.66.67-2.32,2.32-2.32h3.29c1.36,0,2.39.16,2.39,1.79,0,1.36-1.36,4.44-1.98,5.73-.18.34-.3.55-.3.76,0,.16.09.35.41.6.74.62,1.38,1.49,1.82,2.39.46.92.67,2,.67,3.04,0,1.36-.39,2.9-1.61,3.66-.83.53-1.82.53-2.76.53s-1.52-.18-1.52-1.29c0-.81.3-1.08,1.08-1.08h.46c1.33,0,1.79-.85,1.79-2.09,0-1.75-.97-3.22-2.14-4.44-.3-.32-.53-.64-.53-1.1s.16-.78.53-1.54c.39-.81,1.61-3.56,1.61-4.32,0-.3-.28-.39-.53-.39h-2.14c-.41,0-.64.21-.64.64v16.88-.02Z"/>
          <path class="cls-5" d="M212.91,51.89c0,.92-.44,1.22-1.31,1.22-.78,0-1.17-.37-1.17-1.15v-10.99h-4.16c-.6,0-.94.37-.94.94v8.44c0,.85-.46,1.17-1.29,1.17-.78,0-1.2-.39-1.2-1.17v-8.97c0-1.93.76-2.71,2.69-2.71h4.9v-2.41h-8.37c-.81,0-1.15-.44-1.15-1.22s.41-1.13,1.15-1.13h8.35v-1.49c0-.9.57-1.1,1.36-1.1.74,0,1.2.35,1.2,1.1v1.49h8.39c.83,0,1.13.44,1.13,1.22s-.41,1.13-1.13,1.13h-8.44v2.41h4.99c1.93,0,2.71.76,2.71,2.71v7.27c0,2.53-1.4,2.6-3.47,2.6-1.56,0-2.44-.02-2.44-1.38,0-1.01.6-1.13,1.45-1.13h.92c.69,0,1.03-.21,1.03-.94v-5.89c0-.58-.37-.94-.94-.94h-4.25v10.92h-.01Z"/>
          <path class="cls-5" d="M238.55,32.49c0-.9.51-1.15,1.33-1.15.76,0,1.2.37,1.2,1.15v1.15h7.93c.85,0,1.2.37,1.2,1.2,0,.78-.46,1.1-1.2,1.1h-14.92c-.76,0-1.17.41-1.17,1.17v5.13c0,3.04-.41,6.09-1.5,8.95-.3.78-.62,1.56-1.4,1.56-.71,0-1.43-.53-1.43-1.29,0-.32.21-.83.41-1.31.16-.34.32-.71.41-.94.9-2.18,1.08-4.65,1.08-6.99v-5.57c0-2.16.87-3.01,3.04-3.01h5.01v-1.15h0ZM240.48,51.55c-2.12.18-4.23.37-6.35.55-.21.02-.39.05-.58.05-.78,0-1.22-.44-1.22-1.22,0-.69.37-1.01.87-1.08.46-.07,1.06-.09,1.56-.14.51-1.2.92-2.44,1.33-3.7.62-1.91,1.31-4.09,1.79-5.91.11-.41.25-1.08.44-1.7.14-.51.28-.94.44-1.17.18-.28.58-.39.9-.39.64,0,1.38.28,1.38,1.03,0,.21-.14.8-.35,1.56-.41,1.47-1.1,3.59-1.47,4.67-.62,1.84-1.22,3.68-2,5.45,2.92-.21,5.86-.32,8.76-.74-.62-1.31-1.29-2.6-1.98-3.86-.25-.46-.74-1.2-.74-1.66,0-.62.69-1.06,1.26-1.06.32,0,.6.14.8.39.58.69,1.7,2.97,2.21,3.89.35.64,1.26,2.46,1.79,3.82.23.57.39,1.06.39,1.33,0,.69-.62,1.15-1.26,1.15-.32,0-.64-.12-.85-.37-.35-.44-.55-1.1-.76-1.61-2.12.32-4.25.53-6.39.71h.03Z"/>
          <path class="cls-5" d="M267.08,47.41c.58-.18,2.07-.76,2.6-.76.6,0,.9.62.9,1.17,0,.37-.16.64-.51.85-.71.41-1.54.64-2.28.87-.53.18-1.7.55-2.69.83-.71.21-1.36.37-1.63.37-.69,0-1.03-.71-1.03-1.31,0-.14.02-.28.07-.41-.53.23-1.75.71-2.85,1.15-.78.3-1.5.53-1.75.53-.69,0-1.06-.76-1.06-1.36s.37-.87.9-1.08c.51-.21,1.15-.34,1.82-.57v-8.3h-1.47c-.78,0-1.13-.41-1.13-1.2,0-.74.41-1.1,1.13-1.1h1.47v-4.46c0-.78.37-1.2,1.17-1.2s1.15.46,1.15,1.2v4.46h.99c.69,0,.97.55.97,1.17s-.3,1.13-.94,1.13h-1.01v7.45c.39-.16.97-.48,1.38-.48.58,0,.92.62.92,1.13,0,.28-.09.53-.28.76,1.06-.28,2.12-.48,3.17-.83h-.01ZM277.31,34.76c.74,0,1.24.3,1.24,1.1s-.51,1.13-1.24,1.13h-3.82c0,2.35.05,4.71.28,7.06.74-1.43,1.17-2.92,1.61-4.46.14-.51.39-.92.97-.92s1.2.32,1.2.97c0,.94-1.06,3.79-1.56,4.76-.53,1.01-.99,2.12-1.63,3.08.18,1.13.83,2.71,1.33,2.71.46,0,.8-.9,1.06-1.59.16-.46.37-1.06.94-1.06s1.04.46,1.04,1.01c0,.6-.37,1.45-.74,2.21-.48.99-1.17,2.3-2.44,2.3s-2.37-1.33-2.94-3.31c-1.56,1.72-3.4,3.27-4.37,3.27-.67,0-1.17-.64-1.17-1.29,0-.21.05-.44.16-.6.3-.39,1.68-1.26,2.16-1.61.97-.67,1.84-1.61,2.58-2.55-.3-1.77-.53-3.54-.64-5.33-.09-1.54-.12-3.1-.14-4.65h-6.78c-.71,0-1.2-.34-1.2-1.13s.48-1.1,1.2-1.1h6.74c0-.28-.02-.83-.02-1.38,0-.64.05-1.31.18-1.56.21-.39.67-.46,1.08-.46.46,0,1.06.25,1.08.67.05.62.05,2.07.05,2.74h3.82-.03ZM270.34,43.2c0,1.89-.51,2.39-2.39,2.39h-1.63c-1.86,0-2.37-.51-2.37-2.39v-2.44c0-1.89.51-2.39,2.37-2.39h1.63c1.89,0,2.39.51,2.39,2.39v2.44ZM266.53,40.35c-.41,0-.64.25-.64.64v1.98c0,.41.23.64.64.64h1.24c.39,0,.64-.23.64-.64v-1.98c0-.41-.25-.64-.64-.64h-1.24ZM276.76,32.39c.32.37.85.78.85,1.29,0,.55-.58.97-1.08.97-.39,0-.85-.51-1.22-.92-.53-.58-.92-1.01-.92-1.38,0-.51.55-.9,1.04-.9.44,0,.9.44,1.33.94Z"/>
          <path class="cls-5" d="M287.09,39.09c-.85,0-1.22-.37-1.22-1.24,0-.8.48-1.13,1.22-1.13h4.51c1.5,0,2.51.16,2.51,1.93,0,2-.99,4.97-1.89,6.69-.99,1.91-2.28,3.59-3.89,4.99-.34.3-.74.64-1.24.64-.74,0-1.36-.76-1.36-1.47,0-.37.3-.74.62-1.01,1.22-.99,2.35-1.96,3.2-3.31.62-.99,1.1-2.07,1.52-3.17.28-.74.64-1.84.64-2.42,0-.44-.32-.51-.71-.51h-3.91,0ZM304.29,35.29c.32-.39.64-.8,1.2-.8.69,0,1.38.67,1.38,1.36,0,.6-.9,1.47-1.68,2.23-1.45,1.4-3.01,2.71-4.69,3.84,1.86,3.08,3.59,4.35,6.37,6.48.34.28.64.57.64,1.06,0,.76-.64,1.52-1.43,1.52-.97,0-3.2-2.25-3.89-2.97-1.86-1.95-3.43-4.21-4.32-6.78v9.06c0,.92-.21,2.05-1.17,2.34-.76.23-1.98.23-2.94.23-.74,0-1.47,0-1.82-.05-.58-.09-1.04-.37-1.04-1.31,0-.81.46-1.17,1.24-1.17.69,0,1.4.02,2.09.02s1.17-.16,1.17-.92v-16.79c0-.92.46-1.2,1.31-1.2s1.15.41,1.15,1.2v1.4c.23,1.98.69,3.98,1.54,5.77,1.75-1.36,3.5-2.78,4.88-4.53h0Z"/>
          <path class="cls-5" d="M321,49.43c1.01.6,2.35.81,3.56.81h10.28c.67,0,1.13.41,1.13,1.08,0,.76-.44,1.2-1.2,1.2h-10c-1.38,0-2.76-.18-3.96-.71-.85-.37-1.56-.92-2.16-1.75-.3.44-.99,1.38-1.7,2.02-.44.41-.9.74-1.26.74-.74,0-1.33-.74-1.33-1.45,0-.55.44-.94,1.38-1.7.46-.37.85-.76,1.24-1.17v-5.24c0-.41-.18-.74-.62-.74h-.85c-.76,0-1.08-.46-1.08-1.17,0-.78.46-1.08,1.2-1.08h1.31c1.86,0,2.37.51,2.37,2.37v4.14c.12,1.29.78,2.12,1.7,2.67v-.02ZM318.29,33.5c.92.85,1.61,1.59,1.61,2.12,0,.71-.64,1.31-1.33,1.31-.39,0-.62-.16-1.03-.62-.58-.62-1.13-1.24-1.75-1.84-.37-.37-1.01-.8-1.01-1.38,0-.64.6-1.27,1.24-1.27.46,0,1.42.87,2.28,1.68h0ZM332.04,37.36c1.66,0,2.32.67,2.32,2.32v6.83c0,1.66-.67,2.32-2.32,2.32h-8.23c-1.63,0-2.3-.67-2.3-2.32v-6.83c0-1.66.64-2.32,2.3-2.32h2.02c.16-.44.32-.9.46-1.36h-5.13c-.74,0-1.06-.34-1.06-1.06s.41-.99,1.06-.99h2.55c-.09-.18-.3-.51-.48-.8-.18-.32-.34-.64-.34-.83,0-.64.85-.85,1.33-.85.37,0,.74.09.94.39.41.62.87,1.4,1.17,2.09h3.06c.28-.57.55-1.15.78-1.72s.55-.8,1.17-.8c.55,0,1.31.25,1.31.9,0,.16-.14.51-.3.85-.14.28-.3.57-.41.78h2.85c.69,0,1.08.32,1.08,1.01s-.39,1.04-1.08,1.04h-6.05c-.16.46-.32.92-.53,1.36h3.83ZM331.99,39.78c0-.39-.23-.64-.62-.64h-6.83c-.39,0-.64.25-.64.64v.9h8.09v-.9ZM323.9,42.3v1.43h8.09v-1.43h-8.09ZM323.9,45.39v.92c0,.41.25.64.64.64h6.83c.39,0,.62-.23.62-.64v-.92h-8.09Z"/>
          <path class="cls-5" d="M353.17,34.14c-.46.53-.99,1.03-1.5,1.52-.97.94-2.09,1.84-3.17,2.6-1.36.97-3.75,2.16-4.35,2.16-.76,0-1.22-.78-1.22-1.47,0-.62.39-.9.92-1.1,1.33-.55,2.62-1.22,3.82-2.02,1.63-1.1,2.78-2.35,4.19-3.7.57-.55,1.06-.85,1.86-.85.48,0,.97.12,1.36.39.6.44,2.12,1.98,2.76,2.58,1.72,1.56,3.73,2.74,5.89,3.61.51.21.92.53.92,1.13,0,.71-.51,1.45-1.26,1.45-.55,0-3.1-1.31-4.19-2.07-1.38-.97-2.6-2.02-3.82-3.15-.37-.34-.74-.69-1.06-1.06-.16-.18-.34-.41-.57-.41-.18,0-.28.07-.58.41v-.02ZM355.26,49.82h7.86c.83,0,1.22.39,1.22,1.22,0,.78-.46,1.13-1.22,1.13h-18.76c-.85,0-1.2-.41-1.2-1.24,0-.76.46-1.1,1.2-1.1h1.98v-8.03c0-.9.44-1.2,1.29-1.2.78,0,1.13.44,1.13,1.2v8.03h4.12v-11.43c0-.87.44-1.2,1.26-1.2s1.13.44,1.13,1.2v3.66h6.14c.8,0,1.2.37,1.2,1.2,0,.76-.48,1.1-1.2,1.1h-6.14v5.47h-.01Z"/>
          <path class="cls-5" d="M378.9,32.6c0-.8.39-1.22,1.2-1.22.76,0,1.08.48,1.08,1.22v2.12h1.93v-2.12c0-.8.37-1.22,1.17-1.22s1.08.48,1.08,1.22v2.12h1.63c-.09-.14-.14-.28-.14-.44,0-.28.14-.48.3-.69.28-.35.51-.74.71-1.15.28-.53.48-.8,1.15-.8.51,0,1.22.28,1.22.9,0,.58-.8,1.75-1.17,2.18h2.6c.62,0,1.17.3,1.17.99s-.55,1.01-1.17,1.01h-4.32c-.21.64-.39,1.29-.64,1.93h4.25c.62,0,1.06.3,1.06.97s-.46.94-1.06.94h-7.63v1.24h6.99c.55,0,1.01.28,1.01.9s-.46.87-1.01.87h-6.99v1.33h8.35c.62,0,1.17.3,1.17.99s-.55.99-1.17.99h-6.76c1.98,1.59,3.91,2.44,6.28,3.1.62.18,1.36.39,1.36,1.17,0,.69-.48,1.31-1.2,1.31-1.1,0-3.82-1.38-4.81-2-1.17-.71-2.23-1.56-3.22-2.53v3.98c0,.85-.39,1.22-1.22,1.22-.78,0-1.13-.48-1.13-1.22v-3.93c-1.06,1.06-2.28,2-3.61,2.74-.97.55-3.43,1.77-4.46,1.77-.71,0-1.13-.67-1.13-1.33,0-.78.87-1.01,2.02-1.33,2.18-.62,3.86-1.5,5.63-2.94h-6.88c-.62,0-1.2-.3-1.2-.99s.58-.99,1.2-.99h8.42v-1.33h-6.99c-.58,0-1.01-.28-1.01-.87s.44-.9,1.01-.9h6.99v-1.24h-7.68c-.6,0-1.06-.3-1.06-.94s.44-.97,1.06-.97h4.3c-.21-.64-.44-1.31-.71-1.93h-4.32c-.62,0-1.2-.32-1.2-1.01s.58-.99,1.2-.99h2.62c-.28-.51-.51-.94-.78-1.4-.14-.21-.25-.53-.25-.69,0-.6.69-.94,1.15-.94.71,0,.99.46,1.45,1.2.44.71.58,1.01.58,1.33,0,.18-.07.37-.18.51h1.77v-2.14ZM379.33,36.72c.23.64.44,1.29.67,1.93h4.37c.28-.62.46-1.29.62-1.93h-5.66Z"/>
          <path class="cls-5" d="M115.99,69.27c.65.32,1.36.46,2.08.46s1.4-.15,1.92-.52c.48-.35.79-.84.79-1.56s-.29-1.18-.72-1.53c-.45-.36-1.06-.57-1.66-.78-.99-.34-1.94-.72-2.54-1.41-.39-.45-.63-1.04-.63-1.84,0-.99.38-1.8.99-2.37.66-.62,1.6-.96,2.64-.96.71,0,1.57.17,2.23.46.27.12.44.32.44.63,0,.35-.24.69-.6.69-.14,0-.38-.11-.48-.15-.45-.19-1.04-.33-1.58-.33-.6,0-1.17.2-1.57.54-.39.33-.63.81-.63,1.42,0,.51.17.87.44,1.16.42.44,1.09.67,1.81.92,1,.34,1.92.72,2.53,1.37.48.5.77,1.15.77,2.1,0,1.21-.52,2.1-1.33,2.68-.75.54-1.74.81-2.77.81-.96,0-1.94-.21-2.79-.63-.3-.15-.51-.3-.51-.66s.27-.69.65-.69c.15,0,.38.12.52.2h0Z"/>
          <path class="cls-5" d="M127.14,71.06c-1.06,0-2.1-.44-2.62-1.4-.41-.73-.42-1.65-.42-2.47v-4.79c0-.45.25-.66.69-.66s.67.22.67.66v4.56c0,.58,0,1.3.21,1.86.27.71,1.02,1,1.73,1,.84,0,1.6-.39,2.01-1.08.33-.57.39-1.15.39-1.78v-4.56c0-.45.25-.66.69-.66s.66.22.66.66v8.03c0,.42-.24.63-.66.63s-.66-.21-.66-.63v-.75c-.65.92-1.56,1.38-2.68,1.38h-.01Z"/>
          <path class="cls-5" d="M135.7,62.31c.55-.39,1.2-.57,1.89-.57,1.05,0,2.1.43,2.62,1.39.38.69.41,1.54.41,2.34v4.93c0,.44-.24.65-.68.65s-.67-.21-.67-.65v-4.57c0-.57,0-1.31-.21-1.85-.27-.7-1.02-1-1.73-1-.84,0-1.56.36-2.01,1.07-.36.55-.39,1.16-.39,1.79v4.57c0,.45-.25.65-.69.65s-.67-.23-.67-.65v-8.02c0-.43.25-.64.67-.64s.66.22.66.64v.75c.27-.39.39-.54.79-.83h0Z"/>
          <path class="cls-5" d="M144.36,70.43c0,.43-.25.63-.68.63s-.66-.21-.66-.63v-11.35c0-.44.25-.65.69-.65s.67.21.67.65v4.18c.31-.39.63-.75,1.06-1.02.56-.34,1.21-.49,1.86-.49,1.2,0,2.13.48,2.77,1.21.78.88,1.16,2.16,1.16,3.45s-.35,2.46-1.08,3.36c-.65.79-1.6,1.29-2.85,1.29s-2.23-.53-2.95-1.53v.9h.01ZM144.82,68.49c.48.87,1.29,1.33,2.28,1.33s1.73-.45,2.18-1.12c.42-.63.6-1.46.6-2.29,0-.93-.23-1.84-.75-2.49-.46-.57-1.11-.93-2.02-.93-.99,0-1.8.45-2.28,1.33-.34.65-.45,1.35-.45,2.08s.09,1.44.45,2.08h-.01Z"/>
          <path class="cls-5" d="M156.21,71.06c-1.06,0-2.1-.44-2.62-1.4-.4-.73-.42-1.65-.42-2.47v-4.79c0-.45.25-.66.69-.66s.67.22.67.66v4.56c0,.58,0,1.3.21,1.86.27.71,1.02,1,1.73,1,.84,0,1.6-.39,2.01-1.08.33-.57.39-1.15.39-1.78v-4.56c0-.45.25-.66.69-.66s.66.22.66.66v8.03c0,.42-.24.63-.66.63s-.66-.21-.66-.63v-.75c-.65.92-1.56,1.38-2.68,1.38h-.01Z"/>
          <path class="cls-5" d="M169.64,61.74c.39,0,.71.18.71.6,0,.53-.41.57-.66.6-.3.03-.54.12-.79.29.28.48.4.99.4,1.54,0,.92-.36,1.61-.93,2.07-.63.51-1.52.76-2.44.76-.27,0-.56-.01-.83-.06-.21.09-.54.22-.78.42-.2.17-.35.34-.35.57,0,.3.25.51.67.57.56.08,1.33.12,1.88.15.79.04,1.64.12,2.34.52.79.46,1.2,1.28,1.2,2.19,0,1.17-.6,1.88-1.42,2.29-.81.4-1.85.54-2.76.54-.96,0-2.05-.17-2.83-.68-.65-.42-1.08-1.06-1.08-2.04,0-1.04.54-1.79,1.4-2.33-.45-.27-.77-.57-.77-1.12,0-.72.6-1.26,1.17-1.58-.85-.52-1.32-1.39-1.32-2.38,0-.92.38-1.62.96-2.12.65-.55,1.56-.82,2.47-.82.74,0,1.48.18,2.12.57.46-.36,1.06-.57,1.65-.57v.02ZM167.94,73.25c.45-.25.78-.66.78-1.27,0-.78-.52-1.31-1.26-1.46-.58-.12-1.44-.2-2.04-.2s-1.14.08-1.59.48c-.35.3-.54.75-.54,1.2,0,.57.25.95.65,1.2.55.38,1.38.46,2.02.46s1.39-.09,1.98-.42h0ZM164.36,63.39c-.38.32-.62.76-.62,1.35,0,.54.21.96.56,1.25.44.35.99.51,1.56.51.6,0,1.18-.18,1.59-.55.33-.3.54-.72.54-1.26,0-.64-.3-1.12-.75-1.42-.38-.24-.84-.36-1.33-.36-.58,0-1.16.17-1.54.5v-.02Z"/>
          <path class="cls-5" d="M174.81,71.06c-1.06,0-2.1-.44-2.62-1.4-.4-.73-.42-1.65-.42-2.47v-4.79c0-.45.25-.66.69-.66s.67.22.67.66v4.56c0,.58,0,1.3.21,1.86.27.71,1.02,1,1.73,1,.84,0,1.6-.39,2.01-1.08.33-.57.39-1.15.39-1.78v-4.56c0-.45.25-.66.69-.66s.66.22.66.66v8.03c0,.42-.24.63-.66.63s-.66-.21-.66-.63v-.75c-.65.92-1.56,1.38-2.68,1.38h-.01Z"/>
          <path class="cls-5" d="M183.37,62.31c.55-.39,1.2-.57,1.89-.57,1.05,0,2.1.43,2.62,1.39.38.69.41,1.54.41,2.34v4.93c0,.44-.24.65-.68.65s-.67-.21-.67-.65v-4.57c0-.57,0-1.31-.21-1.85-.27-.7-1.02-1-1.73-1-.84,0-1.56.36-2.01,1.07-.36.55-.39,1.16-.39,1.79v4.57c0,.45-.25.65-.69.65s-.67-.23-.67-.65v-8.02c0-.43.25-.64.67-.64s.66.22.66.64v.75c.27-.39.39-.54.79-.83h0Z"/>
          <path class="cls-5" d="M191.02,69.51c.52.19,1.19.31,1.74.31.51,0,1.11-.1,1.53-.39.35-.22.57-.57.57-1.07,0-.43-.17-.72-.44-.93-.34-.27-.84-.42-1.42-.58-.84-.24-1.65-.5-2.16-1.04-.35-.36-.56-.84-.56-1.51,0-.78.31-1.38.79-1.8.58-.51,1.46-.76,2.31-.76.58,0,1.23.12,1.77.33.28.11.48.26.48.58s-.24.63-.57.63c-.09,0-.18-.02-.43-.11-.39-.13-.81-.2-1.2-.2-.46,0-.94.09-1.3.35-.29.21-.5.51-.5.96,0,.39.15.66.39.87.4.34,1.08.49,1.83.73.71.23,1.35.5,1.77.93.36.38.58.87.58,1.58,0,.96-.44,1.62-1.08,2.04-.67.43-1.56.62-2.41.62-.75,0-1.71-.18-2.35-.45-.27-.11-.44-.29-.44-.58,0-.34.25-.66.61-.66.06,0,.24.06.48.15h.01Z"/>
          <path class="cls-5" d="M200.25,62.25c.54-.34,1.15-.51,1.8-.51,1.05,0,2.1.43,2.62,1.39.38.69.41,1.54.41,2.34v4.93c0,.44-.24.65-.68.65s-.67-.21-.67-.65v-4.57c0-.57,0-1.31-.21-1.85-.27-.7-1.02-1-1.73-1-.84,0-1.56.36-2.01,1.07-.36.55-.39,1.16-.39,1.79v4.57c0,.45-.25.65-.69.65s-.67-.23-.67-.65v-11.34c0-.44.25-.65.69-.65s.67.21.67.65v4c.31-.39.42-.54.85-.83h0Z"/>
          <path class="cls-5" d="M209.18,59.61c0,.52-.4.94-.93.94s-.93-.42-.93-.94.42-.93.93-.93.93.42.93.93ZM207.56,62.42c0-.45.27-.66.7-.66s.68.22.68.66v7.98c0,.45-.26.66-.69.66s-.68-.21-.69-.66v-7.98h0Z"/>
          <path class="cls-5" d="M229.96,59.43c.12-.4.21-.67.69-.67.35,0,.78.21.78.58,0,.15-.05.3-.09.46l-3.07,10.16c-.19.66-.38,1.09-1.15,1.09s-.98-.56-1.12-1.09l-2.69-9.42-2.69,9.42c-.15.52-.31,1.09-1.14,1.09-.77,0-.95-.46-1.14-1.09l-3.06-10.16c-.04-.13-.09-.33-.09-.46,0-.38.44-.58.78-.58.47,0,.57.27.69.67l2.83,9.84,2.73-9.57c.2-.67.39-.95,1.12-.95.69,0,.87.36,1.04.95l2.74,9.57,2.83-9.84h0Z"/>
          <path class="cls-5" d="M236.51,70.7c-.49.23-1.03.36-1.63.36-.85,0-1.6-.27-2.13-.77-.46-.45-.75-1.08-.75-1.88,0-1.09.57-2.02,1.59-2.44.75-.32,1.88-.46,2.69-.57,1.23-.15,1.6-.25,1.6-.99,0-.56-.3-.92-.71-1.14-.45-.24-1.02-.31-1.5-.31-.78,0-1.27.1-1.98.4-.1.04-.33.14-.44.14-.31,0-.54-.32-.54-.63,0-.36.26-.48.56-.62.72-.32,1.56-.51,2.35-.51,1.06,0,2.35.31,3.04,1.2.49.65.55,1.42.55,2.21v3.87c0,.5.05.76.17,1.25.02.06.03.13.03.21,0,.39-.36.58-.71.58-.3,0-.48-.17-.58-.39-.17-.34-.17-.84-.17-1.17-.42.54-.9.95-1.46,1.2h.02ZM237.9,66.08c-.52.3-1.26.41-1.89.47-.71.07-1.56.17-2.12.55-.36.25-.6.64-.6,1.27,0,.47.14.83.39,1.08.3.29.75.44,1.27.44.65,0,1.19-.18,1.65-.48.52-.34.95-.88,1.29-1.51v-1.82h.01Z"/>
          <path class="cls-5" d="M243.81,68.27c0,.55.04.95.24,1.18.2.25.52.38,1.12.38.27,0,.58-.03.68-.03.36,0,.58.24.58.6,0,.25-.09.41-.27.51-.27.15-.69.15-1.2.15-.87,0-1.8-.11-2.23-.98-.25-.51-.29-1.05-.29-1.6v-5.25h-1.27c-.4,0-.63-.21-.63-.62s.23-.63.63-.63h1.27v-2.11c0-.45.26-.65.69-.65s.68.21.68.65v2.11h2.16c.41,0,.62.23.62.63s-.21.62-.62.62h-2.16v5.04Z"/>
          <path class="cls-5" d="M249.7,69.15c.65.55,1.41.71,2.25.71.58,0,1.2-.09,1.74-.27.31-.11.36-.12.47-.12.33,0,.55.28.55.61s-.22.5-.51.6c-.75.25-1.55.38-2.33.38-1.5,0-2.83-.45-3.69-1.74-.56-.83-.79-1.88-.79-2.85,0-1.2.34-2.38,1-3.27.66-.88,1.68-1.45,3-1.45,1.59,0,2.85.85,3.47,2.31.22.52.39,1.21.39,1.79,0,.97-.75.99-1.5.99h-5.01c.06.93.22,1.7.96,2.33v-.02ZM253.6,65.76c.16,0,.33,0,.33-.22,0-.24-.13-.72-.22-.96-.41-.99-1.22-1.63-2.31-1.63-.9,0-1.56.41-2,1-.36.5-.57,1.14-.63,1.82h4.83Z"/>
          <path class="cls-5" d="M260.86,61.74c.38,0,.57.28.57.64,0,.43-.25.57-.65.6-.64.06-1.09.23-1.53.66-.67.67-.75,1.35-.75,2.24v4.53c0,.45-.25.65-.69.65s-.67-.23-.67-.65v-8.02c0-.43.25-.64.67-.64s.66.22.66.64v.75c.42-.81,1.47-1.39,2.38-1.39h0Z"/>
          <path class="cls-5" d="M268.06,69.27c.64.32,1.36.46,2.08.46s1.39-.15,1.92-.52c.48-.35.79-.84.79-1.56s-.29-1.18-.72-1.53c-.45-.36-1.06-.57-1.66-.78-.99-.34-1.94-.72-2.54-1.41-.39-.45-.63-1.04-.63-1.84,0-.99.38-1.8.99-2.37.66-.62,1.61-.96,2.64-.96.71,0,1.57.17,2.23.46.27.12.44.32.44.63,0,.35-.24.69-.6.69-.13,0-.38-.11-.48-.15-.45-.19-1.04-.33-1.58-.33-.6,0-1.17.2-1.58.54-.39.33-.63.81-.63,1.42,0,.51.17.87.44,1.16.42.44,1.09.67,1.81.92,1,.34,1.92.72,2.54,1.37.48.5.76,1.15.76,2.1,0,1.21-.52,2.1-1.33,2.68-.75.54-1.74.81-2.77.81-.96,0-1.94-.21-2.79-.63-.3-.15-.51-.3-.51-.66s.27-.69.64-.69c.15,0,.38.12.53.2h.01Z"/>
          <path class="cls-5" d="M279.21,71.06c-1.07,0-2.1-.44-2.62-1.4-.41-.73-.42-1.65-.42-2.47v-4.79c0-.45.25-.66.69-.66s.67.22.67.66v4.56c0,.58,0,1.3.21,1.86.27.71,1.02,1,1.73,1,.84,0,1.6-.39,2.01-1.08.33-.57.39-1.15.39-1.78v-4.56c0-.45.25-.66.69-.66s.66.22.66.66v8.03c0,.42-.24.63-.66.63s-.66-.21-.66-.63v-.75c-.65.92-1.56,1.38-2.68,1.38h-.01Z"/>
          <path class="cls-5" d="M289.93,61.74c1.26,0,2.22.52,2.87,1.32.72.88,1.07,2.1,1.07,3.34s-.35,2.43-1.05,3.32c-.64.81-1.6,1.33-2.88,1.33-.78,0-1.57-.23-2.19-.72-.29-.22-.51-.51-.74-.78v4.6c0,.45-.25.65-.69.65s-.67-.21-.67-.65v-11.77c0-.43.25-.64.67-.64s.66.21.66.64v.9c.73-1.02,1.69-1.54,2.95-1.54h0ZM287.44,68.48c.46.85,1.29,1.35,2.28,1.35s1.64-.39,2.07-.97c.48-.65.71-1.54.71-2.45s-.21-1.8-.71-2.44c-.45-.6-1.12-.98-2.07-.98s-1.8.47-2.28,1.33c-.36.65-.45,1.35-.45,2.08s.09,1.41.45,2.07h0Z"/>
          <path class="cls-5" d="M300.13,61.74c1.26,0,2.22.52,2.87,1.32.72.88,1.06,2.1,1.06,3.34s-.34,2.43-1.05,3.32c-.65.81-1.61,1.33-2.88,1.33-.78,0-1.58-.23-2.19-.72-.28-.22-.51-.51-.73-.78v4.6c0,.45-.25.65-.69.65s-.67-.21-.67-.65v-11.77c0-.43.25-.64.67-.64s.66.21.66.64v.9c.74-1.02,1.7-1.54,2.96-1.54h-.01ZM297.64,68.48c.46.85,1.29,1.35,2.28,1.35s1.63-.39,2.07-.97c.48-.65.71-1.54.71-2.45s-.21-1.8-.71-2.44c-.45-.6-1.12-.98-2.07-.98s-1.8.47-2.28,1.33c-.36.65-.45,1.35-.45,2.08s.09,1.41.45,2.07h0Z"/>
          <path class="cls-5" d="M306.14,59.07c0-.45.26-.65.69-.65s.67.21.67.65v9.54c0,.3.01.55.13.74.11.15.29.24.62.24h.25c.38,0,.53.25.53.6,0,.41-.23.63-.63.63h-.29c-.81,0-1.32-.15-1.61-.51-.28-.34-.38-.87-.38-1.61v-9.63h.02Z"/>
          <path class="cls-5" d="M309.39,62.79c-.1-.25-.13-.39-.13-.5,0-.36.44-.55.75-.55.36,0,.46.21.58.51l2.38,6.12,2.38-6.12c.12-.3.23-.51.6-.51.33,0,.73.19.73.57,0,.13-.03.21-.13.46l-4.57,11.46c-.15.38-.24.57-.62.57-.34,0-.69-.18-.69-.56,0-.09,0-.18.11-.43l1.5-3.76-2.9-7.26h.01Z"/>
          <path class="cls-5" d="M323.46,70.38c-.13.36-.24.67-.71.67-.36,0-.83-.2-.83-.62,0-.09,0-.2.15-.57l3.97-10.17c.23-.58.5-.95,1.19-.95s.96.36,1.18.95l3.96,10.17c.08.18.15.38.15.57,0,.42-.46.62-.82.62-.45,0-.56-.32-.69-.67l-1.11-2.92h-5.36l-1.09,2.92h0ZM329.44,66.21l-2.2-5.85-2.22,5.85h4.42Z"/>
          <path class="cls-5" d="M336.93,71.06c-1.07,0-2.1-.44-2.62-1.4-.41-.73-.42-1.65-.42-2.47v-4.79c0-.45.25-.66.69-.66s.67.22.67.66v4.56c0,.58,0,1.3.21,1.86.27.71,1.02,1,1.73,1,.84,0,1.6-.39,2.01-1.08.33-.57.39-1.15.39-1.78v-4.56c0-.45.25-.66.69-.66s.66.22.66.66v8.03c0,.42-.24.63-.66.63s-.66-.21-.66-.63v-.75c-.65.92-1.56,1.38-2.68,1.38h-.01Z"/>
          <path class="cls-5" d="M345.74,68.27c0,.55.04.95.24,1.18.2.25.53.38,1.12.38.27,0,.58-.03.68-.03.36,0,.58.24.58.6,0,.25-.09.41-.27.51-.27.15-.69.15-1.2.15-.87,0-1.8-.11-2.23-.98-.25-.51-.29-1.05-.29-1.6v-5.25h-1.28c-.4,0-.63-.21-.63-.62s.23-.63.63-.63h1.28v-2.11c0-.45.25-.65.69-.65s.68.21.68.65v2.11h2.16c.41,0,.62.23.62.63s-.21.62-.62.62h-2.16v5.04h0Z"/>
          <path class="cls-5" d="M352.29,62.25c.54-.34,1.16-.51,1.8-.51,1.05,0,2.1.43,2.62,1.39.38.69.41,1.54.41,2.34v4.93c0,.44-.24.65-.68.65s-.67-.21-.67-.65v-4.57c0-.57,0-1.31-.21-1.85-.27-.7-1.02-1-1.72-1-.84,0-1.56.36-2.01,1.07-.36.55-.39,1.16-.39,1.79v4.57c0,.45-.25.65-.69.65s-.67-.23-.67-.65v-11.34c0-.44.25-.65.69-.65s.67.21.67.65v4c.32-.39.42-.54.86-.83h0Z"/>
          <path class="cls-5" d="M360.15,63.17c.75-.87,1.84-1.42,3.2-1.42s2.37.52,3.13,1.35c.78.84,1.2,2.02,1.2,3.31s-.45,2.52-1.26,3.38c-.75.79-1.8,1.28-3.07,1.28s-2.43-.54-3.18-1.4c-.74-.84-1.14-1.99-1.14-3.25s.41-2.4,1.12-3.24h0ZM361.47,69.14c.54.45,1.18.69,1.89.69.87,0,1.65-.34,2.22-1.04.56-.67.74-1.51.74-2.38s-.17-1.72-.74-2.4c-.57-.67-1.36-1.02-2.23-1.02s-1.65.35-2.21,1.02c-.57.69-.75,1.51-.75,2.4,0,1.04.24,2.01,1.08,2.73Z"/>
          <path class="cls-5" d="M373.36,61.74c.38,0,.57.28.57.64,0,.43-.25.57-.65.6-.64.06-1.09.23-1.53.66-.67.67-.75,1.35-.75,2.24v4.53c0,.45-.25.65-.69.65s-.67-.23-.67-.65v-8.02c0-.43.25-.64.67-.64s.66.22.66.64v.75c.42-.81,1.47-1.39,2.38-1.39h0Z"/>
          <path class="cls-5" d="M377.25,59.61c0,.52-.4.94-.93.94s-.93-.42-.93-.94.42-.93.93-.93.93.42.93.93ZM375.63,62.42c0-.45.27-.66.7-.66s.68.22.68.66v7.98c0,.45-.26.66-.69.66s-.67-.21-.69-.66v-7.98Z"/>
          <path class="cls-5" d="M381.91,68.27c0,.55.04.95.24,1.18.2.25.53.38,1.12.38.27,0,.58-.03.68-.03.36,0,.58.24.58.6,0,.25-.09.41-.27.51-.27.15-.69.15-1.2.15-.87,0-1.8-.11-2.23-.98-.25-.51-.29-1.05-.29-1.6v-5.25h-1.28c-.4,0-.63-.21-.63-.62s.23-.63.63-.63h1.28v-2.11c0-.45.25-.65.69-.65s.68.21.68.65v2.11h2.16c.41,0,.62.23.62.63s-.21.62-.62.62h-2.16v5.04h0Z"/>
          <path class="cls-5" d="M385.97,62.79c-.1-.25-.13-.39-.13-.5,0-.36.44-.55.75-.55.36,0,.46.21.58.51l2.38,6.12,2.38-6.12c.12-.3.23-.51.6-.51.33,0,.73.19.73.57,0,.13-.03.21-.13.46l-4.57,11.46c-.15.38-.24.57-.62.57-.34,0-.69-.18-.69-.56,0-.09,0-.18.11-.43l1.5-3.76-2.9-7.26h.01Z"/>
        </g>
        <g class="cls-4">
          <path class="cls-5" d="M216.07,82.84c0,.13-.04.24-.15.47-.32.67-.69,1.31-1.13,1.9-.52.69-1.1,1.34-1.76,1.89-.13.11-.28.2-.44.2-.37,0-.69-.36-.69-.73,0-.22.14-.37.29-.5.6-.51,1.1-.96,1.58-1.58.44-.56.78-1.14,1.11-1.78.11-.22.23-.42.51-.42.31,0,.69.19.69.54h0ZM217.2,91.91c-1.11.1-2.2.18-3.31.24-.36.02-.73.05-1.09.05-.42,0-.59-.2-.59-.62,0-.19.06-.36.22-.46.09-.05.27-.09.5-.1.26-.01.62-.01.76-.02.81-1.55,1.45-3.2,2.04-4.85.11-.31.22-.52.58-.52.32,0,.7.17.7.53,0,.09-.04.26-.12.48-.19.54-.52,1.32-.63,1.57-.39.92-.8,1.84-1.28,2.72,1.52-.09,3.03-.23,4.54-.43-.41-.6-.84-1.21-1.3-1.78-.1-.12-.19-.26-.19-.43,0-.35.36-.59.68-.59.12,0,.25.04.35.13.24.22.94,1.11,1.14,1.41.35.51,1.19,1.76,1.45,2.29.06.12.1.26.1.41,0,.38-.42.62-.76.62-.24,0-.38-.12-.51-.32-.12-.21-.22-.45-.37-.73-.98.15-1.95.31-2.93.4h.02ZM218.68,82.32c.26,0,.41.15.53.37.33.63.69,1.23,1.11,1.79.55.73,1,1.1,1.66,1.69.13.11.23.26.23.44,0,.35-.31.72-.67.72-.19,0-.45-.19-.75-.46-.55-.51-1.19-1.28-1.4-1.57-.2-.28-.69-.98-1.02-1.6-.19-.35-.33-.67-.33-.86,0-.33.34-.53.64-.53h0Z"/>
          <path class="cls-5" d="M228.39,90.33c.31,0,.45.29.45.57,0,.54-.56.55-1.04.65-1.05.22-2.12.4-3.19.54-.34.04-.89.14-1.23.14s-.52-.33-.52-.65c0-.34.19-.5.52-.54.61-.09,1.22-.13,1.84-.21v-3.08h-1.55c-.38,0-.56-.19-.56-.57,0-.36.21-.53.56-.53h4.27c.39,0,.56.19.56.57,0,.36-.21.53-.56.53h-1.55v2.92c.39-.07,1.75-.34,2.01-.34h0ZM228.61,82.92c0-.44.15-.65.62-.65s.6.22.6.66v.17c0,.34,0,.67,0,1.01h2.79c.37,0,.57.19.57.56s-.22.54-.57.54h-2.77c.02,1.54.18,3.21.75,4.67.14.37.59,1.32,1.06,1.32.35,0,.46-.46.55-.85.08-.32.17-.58.55-.58.3,0,.53.18.53.5,0,.46-.24,1.11-.46,1.52-.23.43-.6.77-1.11.77-.92,0-1.56-.89-1.95-1.63-.87-1.66-1-3.86-1.11-5.71h-5.21c-.39,0-.57-.19-.57-.57,0-.36.22-.53.57-.53h5.18c0-.4-.02-.79-.02-1.19h0ZM232.02,82.84c.24.21.52.45.52.74,0,.31-.37.48-.64.48-.34,0-.74-.47-.98-.69-.19-.17-.35-.33-.35-.54,0-.3.32-.48.59-.48.3,0,.64.3.86.5h0Z"/>
          <path class="cls-5" d="M238.35,83.13c0-.43.23-.58.64-.58s.59.19.59.58v1.65h3.38c.38,0,.63.19.63.59s-.24.59-.63.59h-3.38v4.7c0,1.25-.57,1.47-1.72,1.47-.47,0-.95-.01-.95-.63,0-.33.22-.54.54-.54.11,0,.22.01.32.01.41,0,.57-.04.57-.48v-4.53h-3.6c-.38,0-.63-.19-.63-.59s.24-.59.63-.59h3.6v-1.65h0ZM234.13,90.34c0-.2.13-.34.34-.57.63-.75,1.14-1.57,1.58-2.43.11-.21.24-.36.5-.36.31,0,.7.23.7.57,0,.38-.91,1.77-1.17,2.13-.2.3-.65.89-.9,1.12-.14.13-.22.17-.36.17-.33,0-.69-.27-.69-.63ZM241.31,86.97c.18,0,.33.09.45.23.31.38.57.8.84,1.22.3.45.98,1.53.98,1.87s-.41.58-.72.58-.46-.3-.58-.54c-.45-.85-.96-1.66-1.5-2.44-.07-.1-.13-.21-.13-.33,0-.34.34-.59.66-.59h0Z"/>
          <path class="cls-5" d="M253.56,86.84c.42,0,.64.18.64.62,0,.41-.25.57-.64.57h-8.3c-.42,0-.64-.19-.64-.62s.25-.57.64-.57h8.3Z"/>
          <path class="cls-5" d="M257.65,86.8c.43-1.12.85-2.24,1.21-3.39.1-.3.22-.66.59-.66.31,0,.75.17.75.54,0,.31-.47,1.51-.61,1.87-.6,1.63-1.23,3.23-1.92,4.83l4.3-.57c-.33-.59-.69-1.18-1.08-1.74-.19-.25-.25-.37-.25-.54,0-.34.34-.55.66-.55.22,0,.39.15.51.33.48.66.91,1.35,1.32,2.06.33.57,1.13,1.99,1.13,2.43,0,.35-.35.58-.68.58-.27,0-.43-.18-.54-.42-.15-.36-.33-.73-.51-1.08l-6.87.96c-.12.02-.23.04-.35.04-.37,0-.56-.31-.56-.66,0-.45.32-.51.69-.56l.83-.1c.5-1.11.94-2.24,1.38-3.38h0Z"/>
          <path class="cls-5" d="M270.15,84.48c1.42,1.95,2.85,3.88,4.41,5.73.19.21.33.39.33.61,0,.37-.33.73-.7.73-.32,0-.58-.34-.85-.68-1.33-1.66-2.57-3.39-3.8-5.13-.13-.19-.29-.52-.55-.52-.15,0-.25.12-.35.24-.41.53-.78,1.1-1.17,1.65-.34.46-.97,1.34-1.34,1.74-.11.12-.25.19-.42.19-.34,0-.7-.3-.7-.66,0-.21.13-.37.25-.53.8-.95,1.55-1.94,2.27-2.95.36-.52.76-1.2,1.46-1.2.54,0,.87.38,1.16.78h0ZM275.13,84.7c0,.86-.73,1.58-1.59,1.58s-1.58-.73-1.58-1.58.73-1.59,1.58-1.59,1.59.73,1.59,1.59ZM272.67,84.69c0,.47.38.87.86.87s.87-.4.87-.87-.4-.86-.87-.86-.86.4-.86.86Z"/>
          <path class="cls-5" d="M284.81,86.84c.42,0,.64.18.64.62,0,.41-.25.57-.64.57h-8.29c-.42,0-.64-.19-.64-.62s.25-.57.64-.57h8.29Z"/>
          <path class="cls-5" d="M287.16,85.42c.38,0,1.46.48,1.86.65.3.12.63.23.87.43.12.1.17.24.17.39,0,.32-.21.66-.55.66-.08,0-.17-.01-.46-.14-.61-.27-1.19-.51-1.83-.74-.31-.11-.62-.22-.62-.6,0-.32.22-.64.56-.64h0ZM287.26,91.38c0-.37.2-.47.94-.7,2.46-.77,4.7-2.68,6.2-4.79.2-.29.35-.51.64-.51.34,0,.69.31.69.66,0,.23-.14.44-.26.62-.81,1.19-1.86,2.27-2.99,3.16-1.16.9-2.44,1.64-3.83,2.11-.32.11-.53.18-.73.18-.4,0-.66-.34-.66-.73ZM288.14,82.78c.34,0,1.4.44,1.94.68.34.14.91.3.91.76,0,.31-.22.65-.55.65-.12,0-.23-.03-.43-.12-.62-.29-1.24-.54-1.88-.77-.28-.09-.56-.23-.56-.56s.23-.64.57-.64h0ZM294.17,83.28c.24.35.48.84.48,1,0,.24-.22.45-.46.45s-.37-.23-.48-.47c-.2-.42-.46-.8-.75-1.14-.1-.12-.12-.2-.12-.28,0-.27.24-.44.51-.44.15,0,.31.13.83.88h0ZM295.42,82.27c.11.12.28.39.45.69.21.34.46.84.46,1.02,0,.24-.23.44-.47.44s-.28-.08-.46-.48c-.19-.41-.45-.81-.73-1.2-.05-.08-.12-.17-.12-.26,0-.28.25-.44.51-.44.12,0,.24.1.36.23Z"/>
        </g>
      </g>
    </g>
  </g>
</svg>