<?xml version="1.0" encoding="UTF-8"?>
<svg id="_レイヤー_2" data-name="レイヤー 2" xmlns="http://www.w3.org/2000/svg" viewBox="0 0 332.24 71.3">
  <defs>
    <style>
      .cls-1 {
        fill: none;
      }

      .cls-2, .cls-3 {
        fill: #0e6c8d;
      }

      .cls-3 {
        stroke: #fff;
        stroke-miterlimit: 10;
      }

      .cls-4 {
        isolation: isolate;
      }

      .cls-5 {
        fill: #3e3a39;
      }

      .cls-6 {
        fill: #fff;
      }
    </style>
  </defs>
  <g id="_レイヤー_1-2" data-name=" レイヤー 1">
    <g class="cls-4">
      <path class="cls-5" d="M79.65,13.86c-.1,0-.13.04-.18.15-.06.1-.14.11-.42.11-.34,0-.46,0-.46-.24,0-.21.01-.43.01-.64v-1.91c0-.2-.01-.4-.01-.61,0-.31.14-.44.45-.44s.59,0,.89,0h1.25c.18,0,.26-.08.26-.26v-.2c0-.19-.09-.26-.26-.26h-2.53c-.43,0-.87.02-1.31.02-.23,0-.23-.11-.23-.41s0-.42.23-.42c.44,0,.88.03,1.31.03h2.49c.21,0,.3-.09.31-.3,0-.21-.01-.41-.04-.62-.01-.03-.01-.09-.01-.12,0-.12.09-.14.19-.14.15,0,.62.03.79.04.08,0,.23.02.23.14,0,.07-.06.1-.14.15-.12.09-.12.22-.12.54,0,.21.09.3.3.3h2.56c.44,0,.87-.03,1.31-.03.23,0,.23.12.23.42s0,.41-.23.41c-.44,0-.87-.02-1.31-.02h-2.6c-.19,0-.28.08-.28.26v.2c0,.19.09.26.28.26h1.28c.3,0,.59,0,.88,0,.31,0,.46.12.46.43,0,.21-.01.42-.01.62v1.91c0,.21.01.43.01.64,0,.24-.11.24-.47.24-.26,0-.37,0-.43-.11-.03-.09-.05-.15-.17-.15h-1c-.07,0-.13.02-.13.1,0,.04.02.07.04.1,1.01.89,2.19,1.57,3.39,2.18.29.14.35.18.35.28,0,.17-.26.59-.44.59-.21,0-1.34-.68-1.58-.84-.8-.51-1.55-1.08-2.24-1.73-.02-.03-.05-.04-.09-.04-.09,0-.11.08-.12.14v.8c0,.54.03,1.08.03,1.62,0,.34-.1.37-.46.37-.4,0-.48-.04-.48-.38,0-.54.03-1.07.03-1.61v-.81s-.01-.14-.12-.14c-.03,0-.07.02-.09.04-.85.83-1.8,1.53-2.84,2.09-.18.09-.84.44-1,.44-.19,0-.43-.42-.43-.59,0-.12.17-.2.34-.28,1.14-.52,2.43-1.3,3.36-2.13.03-.03.04-.06.04-.1,0-.08-.07-.1-.13-.1h-.94,0ZM81.19,11.74c.15,0,.26-.11.26-.26v-.21c0-.15-.11-.26-.26-.26h-1.45c-.15,0-.26.11-.26.26v.21c0,.15.11.26.26.26h1.45ZM81.19,13.16c.15,0,.26-.11.26-.26v-.21c0-.15-.11-.26-.26-.26h-1.45c-.15,0-.26.11-.26.26v.21c0,.15.11.26.26.26h1.45ZM84.06,11.74c.17,0,.26-.11.26-.26v-.21c0-.15-.1-.26-.26-.26h-1.45c-.17,0-.28.11-.28.26v.21c0,.15.11.26.28.26h1.45ZM84.06,13.16c.17,0,.26-.11.26-.26v-.21c0-.15-.1-.26-.26-.26h-1.45c-.17,0-.28.11-.28.26v.21c0,.15.11.26.28.26h1.45Z"/>
      <path class="cls-5" d="M89.51,12.04c-.11.07-.29.19-.42.19-.21,0-.5-.4-.5-.59,0-.13.19-.22.36-.31,1.55-.84,3.21-2.19,4.15-3.7.06-.09.09-.15.18-.15.11,0,.69.19.82.23.08.02.17.07.17.15s-.09.11-.15.12c-.04,0-.08.03-.08.09,0,.02.01.04.02.07,1.12,1.28,2.61,2.34,4.09,3.15.18.1.24.12.24.24,0,.19-.22.63-.43.63-.18,0-.94-.51-1.12-.63-1.2-.78-2.21-1.66-3.19-2.7-.06-.07-.11-.09-.2-.09-.08,0-.13.04-.19.1-1.08,1.28-2.32,2.35-3.76,3.2h.01ZM93.95,12.53c0,.22.09.31.31.31h1.22c.43,0,.85-.03,1.28-.03.23,0,.24.12.24.42s-.01.43-.24.43c-.43,0-.85-.03-1.28-.03h-1.22c-.22,0-.31.1-.31.31v1.99c0,.22.09.31.31.31h2.26c.44,0,.88-.02,1.33-.02.22,0,.23.11.23.44s-.01.43-.23.43c-.45,0-.89-.02-1.33-.02h-6.13c-.44,0-.88.02-1.33.02-.23,0-.23-.12-.23-.43s0-.44.23-.44c.45,0,.89.02,1.33.02h2.35c.22,0,.31-.09.31-.31v-1.99c0-.21-.09-.31-.31-.31h-1.19c-.42,0-.84.03-1.27.03-.23,0-.24-.11-.24-.42s.01-.43.24-.43c.42,0,.85.03,1.27.03h1.2c.21,0,.3-.09.3-.31v-.56c0-.22-.09-.31-.3-.31h-.17c-.36,0-.73.02-1.09.02-.24,0-.24-.13-.24-.42s0-.41.24-.41c.36,0,.73.02,1.09.02h1.85c.36,0,.73-.02,1.09-.02.24,0,.24.14.24.41s0,.42-.24.42c-.36,0-.73-.02-1.09-.02h-.18c-.22,0-.31.09-.31.31v.56h.01ZM91.65,15.97c-.15,0-.19-.12-.24-.24-.19-.4-.47-.91-.73-1.27-.04-.05-.09-.13-.09-.2,0-.15.42-.38.56-.38.1,0,.15.08.21.15.09.14.3.45.37.59.1.19.46.87.46.98,0,.2-.43.36-.55.36h.01ZM96.55,14.39c-.08,0-.12.05-.15.12-.2.36-.53.96-.77,1.3-.06.09-.12.2-.23.2-.12,0-.61-.19-.61-.36,0-.04.02-.09.06-.13.31-.44.66-1.02.88-1.52.03-.08.07-.14.12-.14s.2.07.25.09c.15.05.64.23.64.35,0,.09-.14.09-.19.1h0Z"/>
      <path class="cls-5" d="M105,8.88c0,.21.09.3.31.3h2.57c.43,0,.86-.02,1.29-.02.24,0,.24.11.24.43s-.01.43-.24.43c-.43,0-.86-.02-1.29-.02h-6.63c-.43,0-.86.02-1.29.02-.23,0-.24-.1-.24-.43s0-.43.24-.43c.43,0,.86.02,1.29.02h2.55c.22,0,.31-.09.31-.3v-.41c0-.21-.01-.42-.04-.63-.01-.03-.01-.07-.01-.1,0-.12.1-.13.19-.13.23,0,.64.04.88.07.07,0,.17.04.17.13,0,.08-.08.1-.17.15-.11.07-.12.18-.12.45v.46h0ZM107.36,12.68c0-.21-.09-.31-.31-.31h-1.75c-.22,0-.31.1-.31.31v2.98c0,.47.03.95.03,1.42,0,.32-.1.36-.47.36s-.46-.04-.46-.37c0-.47.02-.93.02-1.41v-2.98c0-.21-.09-.31-.31-.31h-1.74c-.22,0-.31.1-.31.31v2.21c0,.38.02.77.02,1.16,0,.3-.08.33-.45.33s-.47-.03-.47-.32c0-.4.02-.78.02-1.17v-2.17c0-.25-.01-.51-.01-.75,0-.4.19-.46.54-.46.26,0,.53.02.79.02h1.61c.22,0,.31-.1.31-.31v-.3c0-.2,0-.4-.03-.59-.01-.03-.01-.08-.01-.11,0-.12.09-.14.19-.14.11,0,.68.05.81.07.08,0,.23,0,.23.12,0,.08-.08.11-.17.17-.14.09-.14.21-.14.52v.27c0,.22.1.31.31.31h1.6c.28,0,.54-.02.8-.02.36,0,.56.05.56.46,0,.24-.01.48-.01.73v2.55c0,.34-.02.69-.31.91-.37.29-1,.3-1.45.3-.34,0-.56,0-.56-.65,0-.15.03-.28.21-.28.14,0,.41.02.67.02.51,0,.55-.05.55-.64,0,0,0-2.24,0-2.24Z"/>
      <path class="cls-5" d="M115.09,12.48c0,.63-.43,1.17-1.17,1.17-.59,0-1.06-.42-1.06-1.01,0-.63.42-1.19,1.19-1.19.57,0,1.03.41,1.03,1.03h0Z"/>
      <path class="cls-5" d="M122.89,15.46c.22,0,.31-.09.31-.31v-6.34c0-.28-.02-.55-.04-.8,0-.03,0-.08,0-.11,0-.12.09-.15.2-.15.12,0,.31.02.43.04.06,0,.12,0,.18,0,.26.02.45.03.45.17,0,.08-.05.1-.15.17-.12.09-.13.27-.13.66v6.36c0,.22.09.31.31.31h2.18c.21,0,.31-.09.31-.31v-4.19c0-.33,0-.7-.04-.97,0-.02,0-.07,0-.1,0-.13.08-.17.19-.17.15,0,.52.05.69.07.12,0,.35,0,.35.15,0,.08-.07.11-.15.18-.12.09-.13.26-.13.65v4.45c0,.51.03,1,.03,1.51,0,.37-.09.42-.47.42-.32,0-.48-.02-.48-.37v-.21c0-.18-.08-.25-.25-.25h-5.93c-.18,0-.26.07-.26.24v.14c0,.36-.08.41-.47.41s-.48-.04-.48-.4c0-.48.02-.97.02-1.45v-4.49c0-.28-.02-.54-.04-.78,0-.03-.01-.08-.01-.11,0-.13.09-.15.2-.15.14,0,.52.04.69.07.14,0,.35,0,.35.14,0,.09-.06.11-.14.18-.12.09-.13.26-.13.64v4.41c0,.22.09.31.31.31h2.18l-.06-.03Z"/>
      <path class="cls-5" d="M135.6,10.22c.21,0,.3-.09.3-.29,0-.22,0-.59,0-.89,0-.23,0-.47,0-.7,0-.29-.02-.51-.02-.57,0-.12.05-.17.18-.17.14,0,.59.07.77.08.1,0,.23,0,.23.12,0,.09-.08.11-.17.15-.11.06-.1.18-.1.36v.19c0,.24,0,.5,0,.74s0,.46,0,.69c0,.21.11.29.31.29h1.19c.44,0,.88-.03,1.32-.03.23,0,.24.12.24.44s0,.43-.24.43c-.44,0-.88-.03-1.32-.03h-1.14c-.2,0-.29.09-.29.3.14,1.38.43,3.01,1.03,4.27.11.22.42.8.68.8.35,0,.44-1.31.45-1.57,0-.14.02-.23.23-.23.24,0,.6.04.6.35,0,.34-.13,1.02-.23,1.35-.17.51-.43,1.01-1.03,1.01-.68,0-1.09-.57-1.4-1.11-.79-1.36-1.08-3.32-1.22-4.87-.02-.22-.11-.28-.33-.3h-3.92c-.44,0-.88.03-1.32.03-.23,0-.23-.12-.23-.43s0-.44.23-.44c.44,0,.88.03,1.32.03h3.88ZM133.91,12.54c0,.22.09.31.31.31h.34c.31,0,.63-.02.91-.02.2,0,.21.11.21.43s0,.42-.21.42c-.27,0-.6-.02-.91-.02h-.34c-.22,0-.31.1-.31.31v1.36c0,.14.06.25.22.25h.07c.07,0,.36-.08.68-.14.37-.08.92-.2,1-.2.19,0,.21.29.21.42,0,.34-.07.37-.31.43-1.35.32-3.26.62-4.66.79-.31.04-.35.07-.42.18-.03.05-.05.11-.13.11-.12,0-.15-.14-.27-.54-.02-.08-.11-.32-.11-.4,0-.11.09-.12.4-.14.1,0,.22,0,.36-.03.21-.02.29-.12.29-.33v-2.51c0-.26-.02-.54-.04-.78,0-.03,0-.08,0-.11,0-.11.08-.14.18-.14.19,0,.38.03.57.04.25.02.41.03.41.15,0,.08-.08.12-.14.15-.12.09-.13.22-.13.59v2.49c0,.14.07.26.23.26h.07l.44-.07c.22-.03.29-.14.29-.34v-3.26c0-.23,0-.47-.04-.7,0-.03,0-.07,0-.1,0-.12.08-.14.18-.14.14,0,.5.04.66.06.12,0,.33,0,.33.14,0,.08-.06.1-.14.17-.12.08-.13.21-.13.53v.38h-.05ZM132.42,9.18c-.32,0-.65.02-.97.02-.24,0-.24-.14-.24-.41s0-.41.24-.41c.33,0,.65.02.97.02h1.39c.32,0,.65-.02.97-.02.25,0,.24.14.24.41,0,.24,0,.41-.23.41-.33,0-.65-.02-.98-.02h-1.39ZM138.77,9.71c-.1,0-.14-.08-.2-.15-.21-.32-.56-.78-.81-1.07-.05-.05-.12-.12-.12-.2,0-.14.42-.38.55-.38.1,0,.18.08.23.15.22.25.42.53.63.78.09.11.29.35.29.48,0,.19-.43.39-.56.39h-.01Z"/>
      <path class="cls-5" d="M146.98,8.88c0,.21.09.3.31.3h2.57c.43,0,.86-.02,1.29-.02.24,0,.24.11.24.43s0,.43-.24.43c-.43,0-.86-.02-1.29-.02h-6.63c-.43,0-.86.02-1.29.02-.23,0-.24-.1-.24-.43s0-.43.24-.43c.43,0,.86.02,1.29.02h2.55c.22,0,.31-.09.31-.3v-.41c0-.21,0-.42-.04-.63,0-.03,0-.07,0-.1,0-.12.1-.13.19-.13.23,0,.64.04.88.07.07,0,.17.04.17.13,0,.08-.08.1-.17.15-.11.07-.12.18-.12.45v.46h-.01ZM149.34,12.68c0-.21-.09-.31-.31-.31h-1.75c-.22,0-.31.1-.31.31v2.98c0,.47.03.95.03,1.42,0,.32-.1.36-.47.36s-.46-.04-.46-.37c0-.47.02-.93.02-1.41v-2.98c0-.21-.09-.31-.31-.31h-1.74c-.22,0-.31.1-.31.31v2.21c0,.38.02.77.02,1.16,0,.3-.08.33-.45.33s-.47-.03-.47-.32c0-.4.02-.78.02-1.17v-2.17c0-.25,0-.51,0-.75,0-.4.19-.46.54-.46.26,0,.53.02.79.02h1.61c.22,0,.31-.1.31-.31v-.3c0-.2,0-.4-.03-.59,0-.03,0-.08,0-.11,0-.12.09-.14.19-.14.11,0,.68.05.81.07.08,0,.23,0,.23.12,0,.08-.08.11-.17.17-.14.09-.14.21-.14.52v.27c0,.22.1.31.31.31h1.6c.28,0,.54-.02.8-.02.36,0,.56.05.56.46,0,.24,0,.48,0,.73v2.55c0,.34-.02.69-.31.91-.37.29-1,.3-1.45.3-.34,0-.56,0-.56-.65,0-.15.03-.28.21-.28.14,0,.41.02.67.02.51,0,.55-.05.55-.64v-2.24h0Z"/>
      <path class="cls-5" d="M157.07,12.48c0,.63-.43,1.17-1.17,1.17-.59,0-1.06-.42-1.06-1.01,0-.63.42-1.19,1.19-1.19.57,0,1.03.41,1.03,1.03h0Z"/>
      <path class="cls-5" d="M164.95,11.84c0-.15-.12-.21-.26-.21h-2.44c-.43,0-.86.02-1.29.02-.22,0-.23-.1-.23-.45s0-.46.23-.46c.43,0,.86.03,1.29.03h2.56c.21,0,.31-.08.33-.3.02-.24.02-.48.02-.74v-.92c0-.32,0-.68-.03-.91,0-.03,0-.07,0-.09,0-.14.12-.17.23-.17.13,0,.26,0,.4.02.06,0,.12,0,.17,0,.26.02.45.03.45.17,0,.05-.06.09-.1.12-.14.1-.15.15-.17.33-.03.73,0,1.45-.03,2.18,0,.21.09.3.29.3h2.6c.43,0,.86-.03,1.29-.03.23,0,.24.11.24.46s0,.45-.24.45c-.43,0-.86-.02-1.29-.02h-2.5c-.12,0-.23.04-.23.19,0,.03,0,.07,0,.09.75,2.04,2.06,3.62,3.95,4.65.1.05.19.1.19.22,0,.19-.27.63-.48.63-.31,0-1.54-.97-1.82-1.21-.98-.86-1.82-2-2.31-3.21-.02-.04-.06-.08-.1-.08-.06,0-.09.04-.11.09-.7,1.92-2.21,3.31-4,4.26-.1.05-.29.15-.41.15-.21,0-.44-.52-.44-.69,0-.13.15-.2.25-.24,1.96-.95,3.51-2.37,3.99-4.54,0-.03,0-.05,0-.09h0Z"/>
      <path class="cls-5" d="M173.54,14.16c-.11.04-.12.07-.14.2-.09.57-.28,1.71-.44,2.24-.03.12-.08.23-.22.23-.1,0-.5-.09-.5-.28,0-.05.11-.4.13-.47.14-.5.32-1.57.35-2.1,0-.08,0-.18.13-.18.08,0,.4.08.48.09.12.03.29.04.29.15,0,.06-.04.09-.09.11h0ZM173.01,9.53c.08,0,.11-.04.14-.1.26-.56.47-1.07.66-1.65,0-.08.04-.18.12-.18.07,0,.83.26.83.42,0,.09-.06.1-.12.11-.09.02-.15.04-.19.13-.24.54-.51,1.08-.79,1.58-.02.05-.04.09-.04.14,0,.07.04.13.09.18.09.07.17.14.24.22.06.04.1.07.17.07.09,0,.14-.06.19-.12.2-.37.39-.74.57-1.11.03-.07.05-.15.14-.15.07,0,.83.38.83.53,0,.11-.1.1-.24.12-.06,0-.08.04-.11.09-.44.78-.9,1.55-1.4,2.3,0,.03-.02.04-.02.09,0,.09.07.12.14.12.21-.03.41-.05.6-.08.1-.02.19-.07.19-.19,0-.03,0-.05-.02-.09-.02-.09-.13-.34-.13-.38,0-.17.32-.28.45-.28.18,0,.25.13.48.86.04.15.29.9.29,1.01,0,.19-.31.26-.46.26-.19,0-.2-.13-.25-.31-.04-.12-.1-.17-.22-.17h-.04c-.05,0-.12.02-.18.02-.22.05-.29.13-.29.35v2.37c0,.43.02.86.02,1.29,0,.33-.07.37-.42.37s-.42-.04-.42-.37c0-.43.03-.86.03-1.29v-2.25c0-.14-.07-.26-.24-.26h-.04c-.22.02-.44.06-.67.08-.07.02-.08.04-.11.11-.04.05-.07.12-.15.12-.11,0-.14-.15-.17-.23-.03-.1-.18-.62-.18-.68,0-.11.1-.11.33-.12.07,0,.12,0,.19,0,.19,0,.29-.06.39-.21.15-.23.29-.46.42-.69.03-.07.07-.12.07-.2,0-.11-.07-.18-.13-.25-.34-.32-.7-.63-1.07-.92-.08-.06-.15-.11-.15-.21,0-.11.21-.56.4-.56.08,0,.13.04.18.09.04.02.08.04.12.04h-.03ZM175.66,16.01c-.15,0-.2-.13-.23-.26-.12-.52-.29-1.08-.48-1.57-.02-.05-.06-.13-.06-.19,0-.15.31-.25.43-.25.23,0,.32.32.53.98.06.18.26.88.26,1.01,0,.2-.34.29-.45.29h0ZM180.97,9.09c0-.21-.1-.31-.31-.31h-3.26c-.22,0-.31.1-.31.31v6.27c0,.54.02,1.07.02,1.61,0,.35-.03.42-.42.42s-.41-.07-.41-.42c0-.53.02-1.07.02-1.61v-5.92c0-.31,0-.6,0-.91,0-.35.03-.55.44-.55.23,0,.46,0,.69,0h3.21c.23,0,.46,0,.69,0,.37,0,.45.17.45.52,0,.32,0,.63,0,.95v5.81c0,.28,0,.55,0,.83,0,.45-.03.83-.46,1.08-.32.2-.94.22-1.31.22-.32,0-.49,0-.49-.62,0-.13.03-.23.19-.23.18,0,.34,0,.52,0,.75,0,.74-.23.74-.73v-6.72h0ZM178.83,10.74c.23,0,.32-.04.43-.25.21-.42.35-.87.48-1.31,0-.07.03-.14.11-.14.13,0,.46.18.59.24.1.04.17.08.17.14,0,.08-.1.09-.15.11-.07,0-.11.03-.13.09-.11.3-.24.59-.37.89,0,.02-.02.04-.02.08,0,.11.08.14.18.14s.2,0,.31,0c.24,0,.23.17.23.38s0,.36-.23.36-.48-.02-.73,0c-.22,0-.3.09-.3.3v.42c0,.21.09.3.3.3.27,0,.54,0,.81,0,.22,0,.21.15.21.35,0,.22,0,.35-.21.35-.27,0-.54-.02-.8-.02h-.88c-.21,0-.31.09-.31.31v.81c0,.38,0,.46.33.46.43,0,.86,0,1.29-.04h.09c.18,0,.19.12.19.24,0,.51-.24.56-.67.56h-.87c-.59,0-1.14-.05-1.14-.65,0-.21.02-.41.02-.6v-.9c0-.09-.02-.15-.16-.17-.2,0-.21-.11-.21-.35,0-.2,0-.35.21-.35.25,0,.49.02.74,0,.22,0,.31-.09.31-.3v-.42c0-.21-.09-.29-.31-.3-.21,0-.42,0-.64,0s-.22-.15-.22-.36,0-.38.22-.38c.2,0,.47.02.75.02h.41-.03ZM178.18,10.53c-.15,0-.18-.13-.25-.35-.05-.13-.19-.43-.25-.56-.02-.05-.05-.11-.05-.17,0-.19.4-.26.48-.26.17,0,.2.1.41.57.03.1.17.43.17.53,0,.18-.4.24-.5.24h0Z"/>
      <path class="cls-5" d="M186.87,9.38c.22,0,.34-.03.46-.22.24-.36.56-1.02.73-1.43.02-.06.04-.13.13-.13.08,0,.96.3.96.46,0,.11-.09.12-.17.13-.09,0-.14.02-.19.1-.19.36-.09.24-.44.84,0,.04-.02.07-.02.11,0,.11.08.14.18.14h2.32c.34,0,.67,0,1.01,0,.4,0,.55.13.55.53,0,.31,0,.61,0,.91v5.18c0,.36.02.73.02,1.09,0,.3-.13.31-.48.31-.37,0-.48,0-.48-.31v-.18c0-.18-.09-.24-.26-.24h-5.28c-.18,0-.25.07-.25.24v.15c0,.3-.12.31-.48.31-.34,0-.48,0-.48-.31,0-.36.02-.73.02-1.09v-5.16c0-.3,0-.61,0-.9,0-.38.13-.54.53-.54.35,0,.69,0,1.03,0h.63-.02ZM191.15,12.53c.19-.02.29-.12.31-.31v-1.71c-.02-.19-.12-.29-.31-.31h-5.24c-.19.02-.3.12-.3.31v1.71c0,.19.11.29.3.31h5.24ZM185.62,15.49c0,.19.11.29.3.31h5.24c.19-.02.29-.12.31-.31v-1.82c-.02-.19-.12-.29-.31-.31h-5.24c-.19.02-.3.12-.3.31v1.82Z"/>
      <path class="cls-5" d="M197.14,12.9c-.1,0-.13.05-.17.13-.04.12-.11.13-.44.13s-.47,0-.47-.24c0-.26.02-.53.02-.79v-3.04c0-.24,0-.48,0-.72,0-.4.21-.46.55-.46.31,0,.61,0,.91,0h4.29c.3,0,.59,0,.9,0,.36,0,.56.07.56.47,0,.24,0,.47,0,.7v3.04c0,.23.02.56.02.78,0,.25-.11.25-.46.25h-.13c-.13,0-.23,0-.3-.07-.07-.09-.13-.19-.24-.2h-1.75c-.21.02-.3.09-.3.31v.57c0,.22.09.31.3.31h1.75c.41,0,.83-.02,1.24-.02.23,0,.24.11.24.42s0,.43-.24.43c-.42,0-.84-.02-1.24-.02h-1.74c-.22,0-.31.09-.31.31v.63c0,.21.09.29.31.31h2.49c.44,0,.88-.03,1.33-.03.23,0,.23.12.23.44s0,.44-.23.44c-.45,0-.89-.03-1.33-.03h-6.55c-.45,0-.89.03-1.33.03-.23,0-.23-.13-.23-.44s0-.44.23-.44c.44,0,.88.03,1.33.03h2.55c.21-.02.3-.1.3-.31v-.63c0-.22-.09-.31-.3-.31h-1.76c-.42,0-.84.02-1.25.02-.24,0-.24-.13-.24-.43s0-.42.24-.42c.42,0,.84.02,1.25.02h1.76c.22,0,.3-.09.3-.31v-.57c0-.22-.08-.29-.3-.31h-1.78v.02ZM199.22,9.07c0-.19-.11-.29-.3-.31h-1.64c-.2.02-.29.12-.31.31v.62c0,.2.11.29.31.31h1.64c.19-.02.3-.11.3-.31v-.62ZM197.28,10.81c-.2.02-.29.12-.31.31v.67c0,.19.11.29.31.31h1.64c.19-.02.3-.12.3-.31v-.67c0-.19-.11-.29-.3-.31h-1.64ZM202.08,9.99c.2-.02.29-.11.31-.31v-.62c-.02-.19-.11-.29-.31-.31h-1.65c-.2.02-.29.12-.31.31v.62c0,.2.11.29.31.31h1.65ZM200.12,11.78c0,.19.11.29.31.31h1.65c.2-.02.29-.12.31-.31v-.67c-.02-.19-.11-.29-.31-.31h-1.65c-.2.02-.29.12-.31.31v.67Z"/>
      <path class="cls-5" d="M211.16,8.88c0,.21.09.3.31.3h2.57c.43,0,.86-.02,1.29-.02.24,0,.24.11.24.43s0,.43-.24.43c-.43,0-.86-.02-1.29-.02h-6.63c-.43,0-.86.02-1.29.02-.23,0-.24-.1-.24-.43s0-.43.24-.43c.43,0,.86.02,1.29.02h2.55c.22,0,.31-.09.31-.3v-.41c0-.21,0-.42-.04-.63,0-.03,0-.07,0-.1,0-.12.1-.13.19-.13.23,0,.64.04.88.07.07,0,.17.04.17.13,0,.08-.08.1-.17.15-.11.07-.12.18-.12.45v.46h-.01ZM213.52,12.68c0-.21-.09-.31-.31-.31h-1.75c-.22,0-.31.1-.31.31v2.98c0,.47.03.95.03,1.42,0,.32-.1.36-.47.36s-.46-.04-.46-.37c0-.47.02-.93.02-1.41v-2.98c0-.21-.09-.31-.31-.31h-1.74c-.22,0-.31.1-.31.31v2.21c0,.38.02.77.02,1.16,0,.3-.08.33-.45.33s-.47-.03-.47-.32c0-.4.02-.78.02-1.17v-2.17c0-.25,0-.51,0-.75,0-.4.19-.46.54-.46.26,0,.53.02.79.02h1.61c.22,0,.31-.1.31-.31v-.3c0-.2,0-.4-.03-.59,0-.03,0-.08,0-.11,0-.12.09-.14.19-.14.11,0,.68.05.81.07.08,0,.23,0,.23.12,0,.08-.08.11-.17.17-.14.09-.14.21-.14.52v.27c0,.22.1.31.31.31h1.59c.28,0,.54-.02.8-.02.36,0,.56.05.56.46,0,.24,0,.48,0,.73v2.55c0,.34-.02.69-.31.91-.37.29-1,.3-1.45.3-.34,0-.56,0-.56-.65,0-.15.03-.28.21-.28.14,0,.41.02.67.02.51,0,.55-.05.55-.64v-2.24h0Z"/>
      <path class="cls-5" d="M221.25,12.48c0,.63-.43,1.17-1.17,1.17-.59,0-1.06-.42-1.06-1.01,0-.63.42-1.19,1.19-1.19.57,0,1.03.41,1.03,1.03h0Z"/>
      <path class="cls-5" d="M230.2,11.36c0-.22-.1-.3-.3-.3h-1.21c-.22,0-.31.08-.33.3-.14,1.68-.37,3.03-1.52,4.35-.43.51-1.02,1-1.6,1.33-.09.06-.23.14-.34.14-.25,0-.58-.44-.58-.67,0-.12.11-.17.19-.22,2.11-1.17,2.78-2.61,2.93-4.94,0-.21-.09-.29-.29-.29h-.66c-.38,0-.76.02-1.13.02-.23,0-.24-.13-.24-.46s0-.46.24-.46c.37,0,.75.02,1.13.02h.69c.21,0,.3-.08.31-.29,0-.19,0-.37,0-.56,0-.51-.03-1.19-.03-1.41,0-.14.04-.22.2-.22.19,0,.65.03.83.08.07.02.17.04.17.14,0,.09-.09.14-.15.19-.1.08-.1.13-.1.24,0,.52,0,1.02,0,1.54,0,.21.1.29.31.29h1.03c.26,0,.53,0,.79,0,.35,0,.59.07.59.47,0,.28,0,.55,0,.83l-.08,3.91c0,.46-.03.68.43.68h.85c.24,0,.62.13.75-1.41,0-.19.02-.3.24-.3.15,0,.31.03.44.11.15.08.19.12.19.3,0,.4-.19,1.13-.33,1.52-.22.62-.56.67-1.17.67h-1.06c-.8,0-1.27-.04-1.27-.98,0-.21,0-.42,0-.63l.07-3.98h0Z"/>
      <path class="cls-5" d="M240.17,11.14c0,.22.09.31.31.31h2.39c.45,0,.9-.02,1.36-.02.25,0,.25.12.25.46s0,.46-.25.46c-.46,0-.91-.02-1.36-.02h-2.39c-.22,0-.31.09-.31.31v2.84c0,.54.02,1.08.02,1.62,0,.33-.09.37-.48.37s-.5-.04-.5-.37c0-.54.02-1.08.02-1.62v-2.84c0-.22-.09-.31-.31-.31h-2.4c-.45,0-.91.02-1.36.02-.25,0-.25-.12-.25-.46s0-.46.25-.46c.45,0,.91.02,1.36.02h2.4c.22,0,.31-.09.31-.31v-2.42c0-.29,0-.58-.04-.83v-.11c0-.12.08-.14.19-.14.13,0,.66.03.83.04.08,0,.24.02.24.14,0,.07-.06.1-.14.15-.12.09-.13.24-.13.66v2.5h-.01Z"/>
      <path class="cls-5" d="M251.81,11.36c0-.22-.1-.3-.3-.3h-1.21c-.22,0-.31.08-.33.3-.14,1.68-.37,3.03-1.52,4.35-.43.51-1.02,1-1.59,1.33-.09.06-.23.14-.34.14-.25,0-.58-.44-.58-.67,0-.12.11-.17.19-.22,2.11-1.17,2.78-2.61,2.93-4.94.01-.21-.09-.29-.29-.29h-.66c-.38,0-.76.02-1.13.02-.23,0-.24-.13-.24-.46s0-.46.24-.46c.37,0,.75.02,1.13.02h.69c.21,0,.3-.08.31-.29.01-.19.01-.37.01-.56,0-.51-.03-1.19-.03-1.41,0-.14.04-.22.2-.22.19,0,.65.03.83.08.07.02.17.04.17.14,0,.09-.09.14-.15.19-.1.08-.1.13-.1.24,0,.52-.01,1.02,0,1.54.01.21.1.29.31.29h1.03c.26,0,.53,0,.79,0,.35,0,.59.07.59.47,0,.28-.01.55-.01.83l-.08,3.91c-.01.46-.03.68.43.68h.85c.24,0,.62.13.75-1.41.01-.19.02-.3.24-.3.15,0,.31.03.44.11.15.08.19.12.19.3,0,.4-.19,1.13-.33,1.52-.22.62-.56.67-1.17.67h-1.06c-.8,0-1.26-.04-1.26-.98,0-.21.01-.42.01-.63l.07-3.98h-.02Z"/>
      <path class="cls-5" d="M259.66,12.9c-.1,0-.13.05-.17.13-.04.12-.11.13-.44.13s-.47,0-.47-.24c0-.26.02-.53.02-.79v-3.04c0-.24-.01-.48-.01-.72,0-.4.21-.46.55-.46.31,0,.61,0,.91,0h4.29c.3,0,.59,0,.9,0,.36,0,.56.07.56.47,0,.24-.01.47-.01.7v3.04c0,.23.02.56.02.78,0,.25-.11.25-.46.25h-.13c-.13,0-.23,0-.3-.07-.07-.09-.13-.19-.24-.2h-1.75c-.21.02-.3.09-.3.31v.57c0,.22.09.31.3.31h1.75c.41,0,.83-.02,1.24-.02.23,0,.24.11.24.42s-.01.43-.24.43c-.42,0-.84-.02-1.24-.02h-1.74c-.22,0-.31.09-.31.31v.63c0,.21.09.29.31.31h2.49c.44,0,.88-.03,1.33-.03.23,0,.23.12.23.44s0,.44-.23.44c-.45,0-.89-.03-1.33-.03h-6.55c-.45,0-.89.03-1.33.03-.23,0-.23-.13-.23-.44s0-.44.23-.44c.44,0,.88.03,1.33.03h2.55c.21-.02.3-.1.3-.31v-.63c0-.22-.09-.31-.3-.31h-1.76c-.42,0-.84.02-1.25.02-.24,0-.24-.13-.24-.43s.01-.42.24-.42c.42,0,.84.02,1.25.02h1.76c.22,0,.3-.09.3-.31v-.57c0-.22-.08-.29-.3-.31h-1.78v.02ZM261.74,9.07c0-.19-.11-.29-.3-.31h-1.64c-.2.02-.29.12-.31.31v.62c0,.2.11.29.31.31h1.64c.19-.02.3-.11.3-.31v-.62ZM259.8,10.81c-.2.02-.29.12-.31.31v.67c0,.19.11.29.31.31h1.64c.19-.02.3-.12.3-.31v-.67c0-.19-.11-.29-.3-.31h-1.64ZM264.6,9.99c.2-.02.29-.11.31-.31v-.62c-.02-.19-.11-.29-.31-.31h-1.65c-.2.02-.29.12-.31.31v.62c0,.2.11.29.31.31h1.65ZM262.64,11.78c0,.19.11.29.31.31h1.65c.2-.02.29-.12.31-.31v-.67c-.02-.19-.11-.29-.31-.31h-1.65c-.2.02-.29.12-.31.31v.67Z"/>
      <path class="cls-5" d="M272.17,14.18h-2.08c-.2,0-.3.08-.3.29-.01.24.01.48.01.73s-.08.28-.44.28-.44-.03-.44-.28c0-.37.02-.75.02-1.12v-4.61c0-.3-.01-.59-.01-.88,0-.36.08-.55.47-.55.22,0,.43,0,.65,0h2.07c.21,0,.42,0,.63,0,.42,0,.5.18.5.56,0,.29-.02.57-.02.87v4c0,.36.02.74.02,1.1,0,.25-.09.29-.43.29s-.44-.03-.44-.28c0-.07.01-.12.01-.18-.01-.15-.08-.22-.22-.22h0ZM270.71,9.13c0-.15-.11-.26-.26-.26h-.4c-.15,0-.26.11-.26.26v1.28c0,.17.11.27.26.27h.4c.15,0,.26-.11.26-.27v-1.28ZM270.05,11.47c-.15,0-.26.11-.26.26v1.38c0,.15.11.26.26.26h.4c.15,0,.26-.11.26-.26v-1.38c0-.15-.11-.26-.26-.26h-.4ZM272.14,10.68c.15,0,.26-.11.26-.27v-1.28c0-.15-.11-.26-.26-.26h-.41c-.15,0-.26.11-.26.26v1.28c0,.17.11.27.26.27h.41ZM271.47,13.11c0,.15.11.26.26.26h.41c.15,0,.26-.11.26-.26v-1.38c0-.15-.11-.26-.26-.26h-.41c-.15,0-.26.11-.26.26v1.38ZM275.79,9.53c0-.21-.09-.31-.31-.31h-.42c-.4,0-.8.03-1.18.03-.26,0-.26-.13-.26-.45s0-.45.25-.45c.4,0,.79.03,1.19.03h1.83c.4,0,.79-.03,1.19-.03.26,0,.26.14.26.45s0,.45-.26.45c-.36,0-.73-.03-1.09-.03-.21.02-.3.1-.3.31v5.86c0,.31.02.62.02.92s-.09.57-.34.74c-.4.26-1.12.3-1.58.3-.15,0-.43,0-.52-.13s-.15-.42-.15-.57c0-.14.07-.24.21-.24.18,0,.46.04.77.04.69,0,.69-.2.69-.81,0,0,0-6.11,0-6.11Z"/>
      <path class="cls-5" d="M283.7,12.48c0,.63-.43,1.17-1.17,1.17-.59,0-1.06-.42-1.06-1.01,0-.63.42-1.19,1.19-1.19.57,0,1.03.41,1.03,1.03h.01Z"/>
      <path class="cls-5" d="M290.94,12.65c.07.08.1.11.1.18,0,.14-.24.56-.38.56-.22,0-.74-.94-.85-1.14-.01-.02-.03-.04-.07-.04-.05,0-.07.04-.08.09v3.22c0,.51.03,1.01.03,1.52,0,.32-.08.36-.44.36-.33,0-.46-.02-.46-.33,0-.52.03-1.03.03-1.55v-2.93s-.01-.04-.04-.04c-.01,0-.02,0-.03.03-.21.73-.44,1.44-.77,2.11-.01.02-.02.04-.03.08-.08.13-.13.24-.24.24-.15,0-.47-.37-.47-.53,0-.11.1-.25.14-.34.51-.91,1-2.37,1.24-3.38.01-.02.01-.07.01-.09,0-.15-.12-.2-.24-.21-.23,0-.51.02-.67.02-.22,0-.21-.15-.21-.42s-.01-.42.21-.42c.13,0,.45,0,.73,0h.08c.22,0,.31-.09.31-.3v-.75c0-.27-.02-.55-.04-.78,0-.03-.01-.08-.01-.11,0-.12.08-.14.18-.14.13,0,.66.06.8.08.09,0,.21.02.21.13,0,.08-.07.1-.15.15-.13.09-.14.25-.14.74v.68c.02.22.09.29.31.3.11,0,.55,0,.59,0,.21,0,.21.14.21.42s0,.42-.21.42c-.19,0-.41-.03-.61-.02-.17,0-.26.05-.29.23.01.07.02.1.04.17.28.53.83,1.35,1.22,1.79h0ZM293.28,16.13h-.05s-.05,0-.08,0c-.08,0-.34.19-.51.32-.31.24-1.45.99-1.75.99-.21,0-.53-.34-.53-.55,0-.12.14-.17.25-.21.63-.28,1.27-.63,1.79-1.06.07-.04.23-.19.3-.19.12,0,.69.52.69.62,0,.04-.04.09-.12.09h0ZM292.39,9.68c0-.18-.08-.24-.25-.26-.11,0-.7.02-.79.02-.23,0-.23-.11-.23-.38s0-.4.23-.4c.19,0,.56,0,.76.02.2,0,.28-.09.29-.29,0-.18-.02-.38-.04-.56,0-.03-.01-.07-.01-.1,0-.11.08-.13.18-.13.12,0,.7.04.84.07.07,0,.17.04.17.12s-.09.12-.15.17c-.13.09-.14.18-.13.46,0,.2.11.26.3.26h.81c.21,0,.29-.08.31-.28,0-.19-.02-.36-.04-.54,0-.03-.01-.07-.01-.1,0-.12.09-.13.19-.13.13,0,.69.05.84.07.07,0,.15.03.15.12,0,.08-.1.13-.15.17-.11.09-.13.15-.12.4,0,.2.08.3.29.3.26,0,.54-.02.8-.02.24,0,.24.13.24.4,0,.24,0,.38-.23.38-.3,0-.58,0-.87-.02-.18.02-.24.1-.24.26v.35c0,.18.09.26.26.26h.07c.36,0,.73-.02,1.1-.02.23,0,.23.13.23.39s0,.38-.23.38c-.36,0-.74-.02-1.1-.02h-1.19c-.19,0-.26.08-.26.26v.21c0,.19.08.26.26.26h.8c.24,0,.44,0,.61,0,.4,0,.58.05.58.4,0,.22-.01.43-.01.64v1.52c0,.21.01.42.01.62,0,.33-.17.42-.46.42-.24,0-.48,0-.73,0h-2.98c-.23,0-.46,0-.7,0-.35,0-.47-.1-.47-.46,0-.19.01-.37.01-.57v-1.52c0-.19-.01-.37-.01-.56,0-.31.09-.47.42-.47.25,0,.51,0,.76,0h.81c.19,0,.26-.08.26-.26v-.21c0-.19-.08-.26-.26-.26h-1.14c-.36,0-.74.02-1.1.02-.23,0-.23-.13-.23-.38s0-.39.23-.39c.37,0,.74.03,1.11.02.18,0,.26-.08.26-.26v-.35l-.05-.03ZM292.38,12.5c-.15,0-.26.1-.26.26v.2c0,.15.11.26.26.26h.88c.15,0,.26-.11.26-.26v-.2c0-.17-.11-.26-.26-.26h-.88ZM292.12,14.35c0,.15.11.26.26.26h.88c.15,0,.26-.11.26-.26v-.23c0-.15-.11-.26-.26-.26h-.88c-.15,0-.26.11-.26.26v.23ZM293.23,10.03c0,.15.11.26.26.26h.89c.15,0,.26-.11.26-.26v-.35c0-.15-.11-.26-.26-.26h-.89c-.15,0-.26.11-.26.26v.35ZM295.78,12.76c0-.17-.11-.26-.26-.26h-.89c-.17,0-.26.1-.26.26v.2c0,.15.1.26.26.26h.89c.15,0,.26-.11.26-.26v-.2ZM295.52,14.61c.15,0,.26-.11.26-.26v-.23c0-.15-.11-.26-.26-.26h-.89c-.17,0-.26.11-.26.26v.23c0,.15.1.26.26.26h.89ZM296.88,17.43c-.29,0-2.27-1.25-2.27-1.53,0-.12.34-.45.47-.45.09,0,.15.08.22.13.45.42,1.22.84,1.78,1.1.12.05.24.09.24.2,0,.18-.26.55-.45.55h.01Z"/>
      <path class="cls-5" d="M303.24,11.3c.21,0,.3-.1.3-.31v-.25c0-.21,0-.42-.04-.63v-.1c0-.12.09-.13.19-.13.13,0,.72.04.86.07.07,0,.17.03.17.12,0,.07-.07.09-.13.14-.15.1-.15.24-.14.78,0,.21.1.31.31.31h1.23c.27,0,.54,0,.81,0,.62,0,.81.45.81.64,0,.52-1.46,1.55-1.89,1.84-.89.59-2.2,1.33-3.17,1.78-.04.03-.1.07-.1.13s.04.1.1.13c1.01.47,2.72.45,3.85.45.58,0,1.18,0,1.77-.03.13,0,.3-.02.42-.02.18,0,.24.11.24.29,0,.57-.24.63-.78.63h-.51c-.76,0-1.52,0-2.28-.02-.77,0-1.49-.02-2.23-.22-.81-.22-1.43-.65-1.94-1.31-.04-.04-.09-.08-.14-.08-.08,0-.11.04-.14.1-.2.4-.42.78-.65,1.17-.03.07-.1.17-.1.23s.03.15.03.22c0,.08-.07.13-.12.13-.11,0-.83-.5-.83-.62,0-.05.13-.22.17-.26.54-.72.97-1.65,1.22-2.51.02-.09.05-.13.15-.13.15,0,.67.18.67.35,0,.03-.01.1-.03.13-.01.07-.02.11-.02.18,0,.13.09.26.15.37.08.09.13.15.24.15.08,0,.12-.02.19-.06,1.16-.55,2.4-1.17,3.42-1.92.18-.13.92-.64.92-.81,0-.12-.19-.11-.33-.11h-4.36c-.45,0-.96.03-1.17.03-.23,0-.23-.12-.23-.43s0-.44.23-.44c.29,0,.75.03,1.17.03h1.71ZM305.24,7.82s-.01-.08-.01-.11c0-.12.1-.13.19-.13.12,0,.7.06.84.07.08,0,.17.03.17.12,0,.05-.05.09-.13.13-.14.09-.14.2-.13.47,0,.21.1.29.3.29h.85c.43,0,.87-.02,1.3-.02.23,0,.23.11.23.43s0,.43-.23.43c-.43,0-.87-.02-1.3-.02h-.85c-.2,0-.29.08-.3.29.01.15.02.3.02.45,0,.3-.1.32-.46.32-.34,0-.45-.02-.45-.3,0-.15.01-.32.01-.47,0-.21-.09-.29-.3-.29h-1.97c-.21,0-.29.08-.29.3,0,.13.01.28.01.42,0,.29-.1.31-.45.31s-.45,0-.45-.29c0-.14.01-.3.01-.45-.01-.21-.09-.29-.3-.29h-.87c-.43,0-.87.02-1.3.02-.23,0-.23-.11-.23-.43s0-.43.23-.43c.43,0,.87.02,1.3.02h.87c.22,0,.3-.09.31-.3,0-.18,0-.38-.03-.56,0-.03-.01-.08-.01-.11,0-.11.08-.12.17-.12.13,0,.64.04.78.05.07,0,.22,0,.22.12,0,.07-.07.09-.13.13-.12.08-.14.17-.13.5,0,.21.1.29.3.29h1.97c.22,0,.3-.09.31-.3,0-.17-.02-.37-.04-.54h-.03Z"/>
      <path class="cls-5" d="M316.07,11.09c0,.21.09.29.3.31h2.61c.41,0,.81-.03,1.22-.03.23,0,.23.12.23.45s0,.45-.23.45c-.41,0-.81-.03-1.22-.03h-1.69c-.22.02-.31.09-.31.31v3.27c0,.42.1.48.5.48h1.32c.56,0,.63-.26.74-1.03.04-.33.04-.58.32-.58.12,0,.6.07.6.38,0,.4-.19,1.16-.37,1.51-.27.54-.57.59-1.13.59h-1.77c-.66,0-1.11-.12-1.11-.89,0-.23.01-.46.01-.69v-3.04c0-.22-.1-.29-.31-.31h-.94s-.02,0-.02.02,0,0,.02.02c.09.02.25.05.25.18,0,.08-.12.13-.18.15-.07.03-.09.09-.1.17-.07.79-.2,1.47-.56,2.19-.42.81-1.07,1.46-1.85,1.92-.21.12-.85.47-1.08.47s-.54-.43-.54-.65c0-.12.12-.15.27-.21,1.06-.37,1.9-1,2.42-2.01.26-.53.42-1.38.43-1.97,0-.2-.09-.26-.28-.29h-1.45c-.41,0-.81.03-1.22.03-.23,0-.23-.13-.23-.45s.01-.45.23-.45c.41,0,.81.03,1.22.03h2.66c.22,0,.31-.1.31-.31v-2.41c0-.28,0-.56-.04-.84-.01-.04-.01-.08-.01-.11,0-.13.09-.15.2-.15.12,0,.67.06.81.07.09,0,.25.02.25.14,0,.09-.07.11-.15.18-.12.08-.13.24-.13.57v2.55h0ZM313.55,10.99c-.2,0-.22-.15-.46-.68-.2-.44-.51-.92-.77-1.33-.03-.05-.1-.14-.1-.21,0-.18.47-.4.61-.4.1,0,.18.08.24.15.11.15.47.79.58,1,.11.2.5.89.5,1.08,0,.22-.46.39-.59.39h0ZM319.3,8.61c0,.08-.1.11-.15.12-.19.04-.17.05-.46.66-.13.27-.86,1.62-1.13,1.62-.14,0-.63-.25-.63-.43,0-.08.13-.24.18-.3.46-.59.83-1.25,1.08-1.97.02-.07.04-.15.13-.15.02,0,.99.26.99.45h0Z"/>
      <path class="cls-5" d="M325.86,14.18h-2.08c-.2,0-.3.08-.3.29-.01.24.01.48.01.73s-.08.28-.44.28-.44-.03-.44-.28c0-.37.02-.75.02-1.12v-4.61c0-.3-.01-.59-.01-.88,0-.36.08-.55.47-.55.22,0,.43,0,.65,0h2.07c.21,0,.42,0,.63,0,.42,0,.5.18.5.56,0,.29-.02.57-.02.87v4c0,.36.02.74.02,1.1,0,.25-.09.29-.43.29s-.44-.03-.44-.28c0-.07.01-.12.01-.18-.01-.15-.08-.22-.22-.22h0ZM324.39,9.13c0-.15-.11-.26-.26-.26h-.4c-.15,0-.26.11-.26.26v1.28c0,.17.11.27.26.27h.4c.15,0,.26-.11.26-.27v-1.28ZM323.73,11.47c-.15,0-.26.11-.26.26v1.38c0,.15.11.26.26.26h.4c.15,0,.26-.11.26-.26v-1.38c0-.15-.11-.26-.26-.26h-.4ZM325.82,10.68c.15,0,.26-.11.26-.27v-1.28c0-.15-.11-.26-.26-.26h-.41c-.15,0-.26.11-.26.26v1.28c0,.17.11.27.26.27h.41ZM325.15,13.11c0,.15.11.26.26.26h.41c.15,0,.26-.11.26-.26v-1.38c0-.15-.11-.26-.26-.26h-.41c-.15,0-.26.11-.26.26v1.38ZM329.48,9.53c0-.21-.09-.31-.31-.31h-.42c-.4,0-.8.03-1.18.03-.26,0-.26-.13-.26-.45s0-.45.25-.45c.4,0,.79.03,1.19.03h1.83c.4,0,.79-.03,1.19-.03.26,0,.26.14.26.45s0,.45-.26.45c-.36,0-.73-.03-1.09-.03-.21.02-.3.1-.3.31v5.86c0,.31.02.62.02.92s-.09.57-.34.74c-.4.26-1.12.3-1.58.3-.15,0-.43,0-.52-.13s-.15-.42-.15-.57c0-.14.07-.24.21-.24.18,0,.46.04.77.04.69,0,.69-.2.69-.81,0,0,0-6.11,0-6.11Z"/>
      <path class="cls-5" d="M86.13,41.41c.46,0,.64-.21.64-.64v-12.92c0-.6-.05-1.22-.09-1.72,0-.07-.02-.16-.02-.23,0-.28.21-.32.44-.32.25,0,1.89.16,2.21.21.18.02.41.07.41.3,0,.16-.11.21-.3.34-.23.18-.25.64-.25,1.31v13.04c0,.44.18.64.64.64h3.96c.46,0,.64-.21.64-.64v-8.92c0-.58,0-1.17-.07-1.61-.02-.07-.02-.16-.02-.23,0-.28.18-.32.41-.32.21,0,1.89.16,2.16.21.16.02.39.07.39.3,0,.16-.09.21-.28.34-.23.18-.25.67-.25,1.36v9.36c0,1.1.05,2.18.05,3.26,0,.76-.23.78-1.22.78s-1.22-.02-1.22-.8v-.23c0-.44-.21-.62-.64-.62h-11.52c-.41,0-.62.18-.62.62,0,.9-.07.97-1.24.97-1.01,0-1.26-.05-1.26-.76,0-1.06.07-2.14.07-3.2v-9.36c0-.6-.05-1.22-.09-1.72,0-.07-.02-.16-.02-.23,0-.28.21-.32.44-.32s1.89.16,2.18.21c.18.02.41.07.41.3,0,.14-.14.21-.3.34-.23.18-.25.71-.25,1.45v8.83c0,.44.18.64.64.64h3.98v-.02Z"/>
      <path class="cls-5" d="M111.99,36.05h.44c.69,0,1.38-.05,1.98-.05.46,0,.44.28.44,1.1s.02,1.1-.44,1.1c-.53,0-1.27-.05-1.98-.05h-.44c-.46,0-.64.18-.64.62v2.28c0,.3.12.55.46.55h.14c.32-.07,3.22-.67,3.24-.67.44,0,.46.78.46,1.1,0,.87-.12.97-.64,1.1-2.23.55-7.29,1.36-9.68,1.66-.55.07-.6.09-.74.32-.07.12-.14.23-.3.23-.28,0-.34-.3-.57-1.01-.09-.25-.37-1.08-.37-1.31,0-.25.16-.25.83-.32.14,0,.32-.02.53-.05.44-.09.6-.25.6-.71v-5.01c0-.55,0-1.1-.09-1.61v-.21c0-.25.16-.3.37-.3.32,0,1.68.12,2.02.16.14.02.37.07.37.25s-.16.25-.28.34c-.25.18-.28.46-.28,1.22v4.88c0,.32.11.55.48.55h.11l.6-.09c.44-.07.57-.25.57-.71v-6.39c0-.46,0-.94-.07-1.4-.02-.07-.02-.16-.02-.21,0-.25.16-.3.37-.3.28,0,1.61.11,1.93.14.21.02.53.05.53.3,0,.16-.16.23-.3.34-.28.18-.3.51-.28,1.5,0,.46.18.64.64.64v.02ZM114.63,30.5c.44,0,.58-.16.62-.6-.02-.48-.05-.99-.05-1.47,0-.53.02-1.06.02-1.61,0-.48-.05-1.04-.05-1.17,0-.34.18-.44.48-.44.21,0,1.89.14,2.09.18.16.02.35.02.35.25,0,.16-.18.25-.32.32-.23.14-.21.51-.21.87v3.06c.05.44.23.6.67.6h2.02c.94,0,1.91-.05,2.85-.05.55,0,.53.28.53,1.13s.02,1.1-.53,1.1c-.94,0-1.91-.05-2.85-.05h-1.93c-.44,0-.62.18-.6.6.18,2.55.83,6.03,1.82,8.37.16.39.71,1.59,1.17,1.59.69,0,.83-2.48.85-2.99.02-.32.09-.48.48-.48.3,0,.85.07,1.13.16.44.16.55.35.55.69,0,.76-.3,2.3-.55,3.01-.41,1.13-1.08,2.07-2.41,2.07-1.49,0-2.39-1.15-3.04-2.35-1.45-2.67-2.09-7.04-2.32-10.07-.05-.44-.25-.6-.67-.6h-7.98c-.94,0-1.91.05-2.85.05-.55,0-.53-.28-.53-1.1s-.02-1.13.53-1.13c.94,0,1.91.05,2.85.05h7.88ZM108.13,28.69c-.69,0-1.4.05-2.09.05-.57,0-.55-.32-.55-1.03s-.02-1.04.53-1.04c.71,0,1.4.05,2.12.05h2.81c.69,0,1.4-.05,2.12-.05.55,0,.53.34.53,1.04s.02,1.03-.55,1.03c-.69,0-1.4-.05-2.09-.05h-2.83ZM121.28,29.72c-.23,0-.3-.18-.41-.34-.41-.71-1.13-1.72-1.66-2.37-.09-.09-.21-.25-.21-.39,0-.32,1.2-.99,1.49-.99.25,0,.46.32.87.85.09.09.16.21.25.32.25.3,1.2,1.61,1.2,1.91,0,.46-1.22,1.01-1.54,1.01h.01Z"/>
      <path class="cls-5" d="M134.38,36.35v.16c0,.32.21.46.51.46h2.9c.51,0,.99-.02,1.49-.02.6,0,1.06.14,1.06.83,0,.48-.02.94-.02,1.43v3.82c0,.6.02,1.22.02,1.82,0,.44-.23.44-1.13.44-.83,0-1.1,0-1.1-.41v-.25c0-.3-.14-.39-.41-.39h-2.37c-.41,0-.6.16-.62.6,0,.21.02.41.02.64,0,.44-.23.44-1.15.44-.85,0-1.08-.02-1.08-.44,0-.62.05-1.22.05-1.82v-1.7c-.02-.09-.05-.21-.16-.21-.07,0-.11.05-.16.12-.14.23-.46.74-.67,1.04-.14.21-.44.6-.69.6-.39,0-1.61-.85-1.61-1.26,0-.18.3-.55.41-.71,1.31-1.84,2.18-3.63,2.69-5.82v-.14c0-.3-.23-.44-.51-.44-.39,0-.78.02-1.2.02s-.41-.25-.41-.99c0-.78,0-1.01.44-1.01.48,0,.97.07,1.45.05.41,0,.6-.16.64-.6.02-.14.02-.28.05-.41,0-.41-.18-.6-.57-.6-.71-.02-1.4.05-2.12.05-.55,0-.55-.28-.55-1.01s0-1.04.55-1.04c.71,0,1.4.07,2.12.05.44,0,.64-.16.64-.6v-.37c-.05-.44-.21-.6-.64-.6-.48-.02-.94.05-1.43.05-.41,0-.39-.25-.39-1.06,0-.74-.02-1.01.39-1.01s.92.05,1.54.05h4.83c.53,0,1.03-.05,1.56-.05.85,0,1.01.39,1.01,1.17,0,.6-.05,1.17-.02,1.77,0,.41.16.6.6.62.21,0,.41-.02.62-.02.57,0,.55.25.55,1.04,0,.71.02,1.01-.53,1.01-.21,0-.41,0-.64-.02-.41.02-.6.21-.6.64v.69c0,.67.05,1.33.05,2s-.25.64-1.08.64c-.64,0-.85,0-1.03-.21-.09-.14-.16-.28-.37-.28h-2.05c-.44,0-.64.14-.74.58l-.14.69v-.03ZM137.5,42.19c.39,0,.6-.23.64-.62v-1.95c-.05-.39-.25-.6-.64-.64h-2.18c-.39.05-.6.25-.64.64v1.95c.05.39.25.62.64.62h2.18ZM137,33.17c.46,0,.64-.18.64-.62v-.34c0-.46-.18-.64-.64-.64h-1.4c-.46,0-.62.18-.67.64-.02.12-.02.23-.02.34,0,.44.14.62.58.62h1.52-.01ZM137,29.61c.46,0,.64-.18.64-.62v-.3c0-.44-.18-.64-.64-.64h-1.36c-.44,0-.62.16-.64.6l-.02.37c.02.44.21.6.64.6h1.38ZM145.02,28.16c-.46,0-.64.18-.64.64v13.06c0,1.1.05,2.18.05,3.27,0,.74-.25.74-1.2.74s-1.2,0-1.2-.71c0-1.1.07-2.18.07-3.29v-12.76c0-.67-.05-1.31-.05-1.96,0-.8.3-1.13,1.1-1.13.6,0,1.22.05,1.82.05h1.79c.51,0,1.03-.05,1.54-.05.85,0,1.54.64,1.54,1.22,0,.76-1.86,4.42-2.32,5.27-.05.12-.16.32-.16.44,0,.16.18.34.3.46,1.29,1.56,2.21,3.52,2.21,5.57,0,2.3-1.08,3.61-3.43,3.61-.99,0-1.63-.07-1.63-1.77,0-.34.02-.71.46-.71.25,0,.55.07.87.07,1.01,0,1.24-.94,1.24-1.79,0-1.79-.99-3.31-2.12-4.64-.16-.18-.35-.41-.35-.64,0-.16.12-.37.16-.48.6-1.31,1.15-2.6,1.75-3.91.02-.07.05-.16.05-.25,0-.28-.32-.28-.51-.28h-1.36l.02-.03Z"/>
      <path class="cls-5" d="M166.79,27.65c0,.44.18.64.64.64h5.13c.9,0,1.79-.07,2.69-.07.58,0,.55.23.55,1.13,0,.83.02,1.1-.53,1.1-.92,0-1.82-.07-2.71-.07h-6.19s-.07.02-.07.05.02.05.05.05c.09.02.16.02.25.02.41.02.83.05.83.3,0,.16-.18.25-.34.35-.3.18-.3.41-.3,1.03v.55c0,.44.23.6.64.6h3.08c.6,0,1.2-.05,1.79-.05.83,0,1.22.18,1.22,1.08,0,.62-.02,1.24-.02,1.86v4.76c0,.76-.02,1.52-.62,2.07-.76.67-2.14.69-3.1.69-.78,0-1.4.05-1.4-1.7,0-.34.05-.69.46-.69.3,0,.85.05,1.38.05.9,0,.99-.09.99-1.31v-3.93c0-.44-.18-.64-.64-.64h-3.13c-.46,0-.64.21-.64.64v6.02c0,.99.07,1.98.07,2.97,0,.67-.25.69-1.22.69s-1.24-.02-1.24-.67c0-.99.07-1.98.07-2.99v-6.02c0-.44-.18-.64-.64-.64h-3.04c-.46,0-.64.18-.64.64v3.98c0,.94.05,1.86.05,2.78,0,.69-.21.71-1.17.71s-1.22-.02-1.22-.71c0-.92.07-1.84.07-2.78v-3.89c0-.64-.05-1.26-.05-1.89,0-.85.35-1.08,1.17-1.08.6,0,1.2.05,1.79.05h3.04c.46,0,.64-.21.64-.64.02-.62,0-1.17-.07-1.79-.07-.32-.16-.46-.46-.51h-5.2c-.92,0-1.82.07-2.74.07-.55,0-.53-.28-.53-1.1,0-.9-.02-1.13.55-1.13.92,0,1.82.07,2.71.07h5.06c.46,0,.64-.21.64-.64v-.28c0-.58-.02-1.15-.09-1.7,0-.07-.02-.14-.02-.21,0-.23.25-.25.44-.25.44,0,1.63.09,2.12.14.18.02.48.07.48.3,0,.18-.16.23-.32.32-.23.11-.25.39-.25.87v.81h0Z"/>
      <path class="cls-5" d="M197.22,27.95c.97,0,1.91-.07,2.87-.07.6,0,.57.25.57,1.13s.02,1.13-.57,1.13c-.97,0-1.91-.05-2.87-.05h-11.87c-.46,0-.64.18-.64.64v3.93c0,3.13-.44,6.58-1.7,9.47-.46,1.06-.69,1.45-1.1,1.45-.46,0-1.72-.55-1.72-1.1,0-.09.05-.18.09-.25,1.66-3.01,2.09-6.58,2.09-9.93v-3.17c0-.71-.05-1.43-.05-2.14,0-.92.55-1.08,1.36-1.08s1.56.05,2.37.05h3.08c.46,0,.64-.21.64-.64.02-.57-.02-1.17-.09-1.75,0-.05-.02-.14-.02-.21,0-.25.21-.32.44-.32.37,0,1.75.14,2.18.18.18.02.55.05.55.32,0,.14-.14.21-.28.34-.3.21-.3.58-.28,1.43,0,.44.21.64.64.64h4.31ZM194.18,37.68c-.07-.12-.14-.21-.14-.34,0-.46,1.45-1.13,1.72-1.13.21,0,.34.14.46.3.69.94,1.7,2.58,2.3,3.61.35.6,2.21,3.89,2.21,4.35s-1.36,1.08-1.77,1.08c-.28,0-.39-.23-.71-.92-.11-.23-.25-.53-.44-.9-.16-.28-.34-.44-.69-.44-.07,0-.11,0-.18.02-3.66.53-7.31,1.04-10.97,1.38-.18.05-.21.09-.3.23-.09.14-.16.28-.35.28-.3,0-.32-.28-.41-.64-.07-.25-.39-1.54-.39-1.75,0-.32.23-.32.64-.34.16-.02.32-.02.53-.05.21-.02.39-.02.6-.05.46-.07.6-.23.78-.64.87-2.6,2.64-7.86,3.17-10.39.05-.25.09-.44.39-.44.25,0,1.79.48,2.14.62.16.05.48.16.48.35s-.18.23-.39.3c-.16.07-.25.16-.32.32-.99,3.04-1.98,6.07-3.13,9.04-.02.09-.02.12-.02.18,0,.16.11.34.44.32,2-.21,4-.41,6-.69.21-.02.37-.14.37-.37,0-.09-.02-.14-.07-.23-.62-1.04-1.29-2.05-1.95-3.06h0Z"/>
      <path class="cls-5" d="M210.88,33.31v4.58c0,.28.12.51.41.51.07,0,.11-.02.18-.02.16-.05.92-.28,1.01-.28.39,0,.39.9.39,1.17,0,.37-.05.62-.41.76-.83.32-2.67.92-3.54,1.15-1.45.39-1.49.46-1.66.76-.07.12-.09.23-.25.23-.23,0-.34-.37-.58-1.13-.05-.16-.11-.37-.18-.58-.05-.16-.16-.48-.16-.64,0-.21.14-.23.69-.32.3-.05.69-.12,1.24-.23.46-.12.6-.32.6-.78v-5.17c0-.41-.16-.6-.6-.62-.37,0-.74.05-1.13.05-.51,0-.48-.3-.48-1.1s-.02-1.1.48-1.1c.28,0,.8.02,1.1.05.46-.02.62-.21.62-.64v-2.62c0-.48-.02-.97-.07-1.38,0-.07-.02-.14-.02-.21,0-.25.18-.28.39-.28.3,0,1.77.09,2.09.14.18.02.51.05.51.3,0,.16-.16.21-.37.32-.25.16-.28.25-.28,1.17v2.55c0,.44.18.6.62.62.28,0,.55-.02.83-.02.51,0,.48.3.48,1.1s.02,1.1-.48,1.1c-.28,0-.55-.05-.83-.05-.44.02-.62.18-.62.62h.02ZM219.32,41.91c-1.17.39-4.74,1.26-5.96,1.47-.44.07-.46.16-.53.37-.07.12-.14.25-.28.25-.23,0-.32-.23-.53-.83-.09-.25-.41-1.24-.41-1.47s.23-.21.46-.23c1.06-.12,5.98-1.06,6.94-1.33.09-.02.23-.07.32-.07.37,0,.37.71.37.97,0,.64-.09.78-.39.87h0ZM222.61,29.4h.97c.87,0,1.72-.07,2.6-.07.6,0,.58.32.58,1.13,0,.85,0,1.13-.6,1.13-.87,0-1.72-.07-2.58-.07h-.92c-.44,0-.6.18-.62.62.07,1.61.18,3.5.46,5.06.05.12.09.21.21.21.09,0,.16-.07.18-.14.6-1.26.94-2.3,1.31-3.63.07-.3.09-.58.35-.58.18,0,.76.28,1.08.41.05.02.12.05.14.07.78.39.97.44.97.64s-.28.25-.37.28c-.28.09-.37.41-.48.74-.6,1.66-1.31,3.29-2.23,4.81-.11.21-.21.39-.21.62,0,.14.05.25.09.41.14.37.69,1.89,1.13,1.89s.55-1.89.58-2.25c0-.18.05-.34.39-.34.39,0,1.43.21,1.43,1.01,0,.69-.21,1.7-.41,2.37-.34,1.01-.8,2.05-2.02,2.05-1.31,0-2.09-1.47-2.6-2.53-.05-.07-.14-.23-.34-.23-.14,0-.21.05-.3.14-.46.51-2.71,2.83-3.29,2.83-.34,0-1.36-.94-1.36-1.31,0-.25.48-.58.67-.71,1.22-.87,2.23-1.82,3.2-2.97.16-.21.28-.37.28-.64,0-.14-.02-.25-.07-.37-.64-2.48-.92-5.24-1.04-7.82-.02-.44-.21-.62-.67-.62h-2.55c-.87,0-1.72.07-2.6.07-.58,0-.58-.3-.58-1.13s0-1.13.6-1.13c.85,0,1.72.07,2.58.07h2.51c.44,0,.62-.16.62-.6v-1.84c0-.64-.05-1.17-.05-1.24,0-.3.14-.41.44-.41.18,0,1.15.09,1.38.11.76.07,1.1.05,1.1.35,0,.21-.21.25-.34.32-.28.12-.25.46-.25.74,0,.67,0,1.31.02,1.98.02.44.21.6.64.6l-.03-.03ZM218.95,36.99c0,.37.02.74.02,1.13,0,.67-.28.97-.94.97-.37,0-.71-.05-1.13-.05h-.97c-.39,0-.53.05-.55.46-.02.37-.28.34-1.04.34-.55,0-.87,0-.87-.51,0-.41.02-.85.02-1.26v-2.99c0-.39-.02-.78-.02-1.17,0-.64.23-.99.92-.99.37,0,.74.05,1.13.05h1.38c.41,0,.78-.05,1.13-.05.69,0,.94.32.94.99,0,.39-.02.78-.02,1.17v1.91h0ZM215.39,36.6c.05.39.25.6.64.64h.39c.39-.05.6-.25.64-.64v-1.17c-.05-.41-.25-.6-.64-.64h-.39c-.39.05-.6.23-.64.64v1.17ZM224.72,29.01c-.25,0-.32-.23-.62-.83-.16-.32-.76-1.38-.97-1.66-.07-.07-.14-.18-.14-.3,0-.32,1.08-.78,1.36-.78.32,0,.83.94.99,1.24.16.28.78,1.31.78,1.54,0,.39-1.1.78-1.4.78h0Z"/>
      <path class="cls-5" d="M236.01,32.83c-.76,0-1.52.05-2.28.05-.53,0-.53-.28-.53-1.17s0-1.2.53-1.2c.76,0,1.52.05,2.28.05h3.56c.46,0,.71.05,1.01.44.21.28.32.53.32.87,0,.39-.23,1.1-.34,1.49-.6,2.07-1.66,4.39-2.92,6.16-.51.71-2.74,3.47-3.56,3.47-.48,0-1.59-.87-1.59-1.36,0-.23.23-.39.41-.53,1.59-1.31,2.81-2.78,3.82-4.55.32-.58,1.38-2.78,1.38-3.36,0-.41-.41-.37-1.01-.37h-1.08ZM246.01,33.06c.16,0,.25-.05.37-.14,1.01-.87,2.55-2.37,3.33-3.45.09-.09.21-.25.34-.25.23,0,1.66,1.08,1.93,1.29.12.09.35.3.35.46s-.14.3-.3.3c-.11,0-.21-.02-.32-.02-.14,0-.25.05-.34.14-1.06,1.08-2.16,2.18-3.82,3.52-.14.12-.28.28-.28.48,0,.14.07.25.14.37,1.45,1.96,3.22,3.89,5.27,5.2.18.11.44.28.44.51,0,.34-1.01,1.56-1.59,1.56-.44,0-1.82-1.22-2.21-1.56-2.18-1.98-3.75-4.23-5.04-6.85-.05-.05-.07-.09-.14-.09-.09,0-.14.07-.14.16v6.65c0,.62.05,1.24.05,1.84,0,2.46-2.16,2.6-4.09,2.6-.53,0-.97,0-1.17-.48-.14-.37-.25-1.13-.25-1.52s.12-.57.51-.57c.28,0,.81.07,1.31.07,1.38,0,1.33-.46,1.33-1.86v-13.22c0-.81-.02-1.63-.09-2.32,0-.07-.02-.21-.02-.3,0-.25.16-.32.39-.32.39,0,1.75.11,2.18.16.18.02.55.05.55.3,0,.16-.16.23-.37.37-.28.21-.32.62-.32,1.4v1.29c0,.32.02.51.14.83.46,1.22.87,2.07,1.45,3.22.12.14.23.28.41.28v-.05Z"/>
      <path class="cls-5" d="M261.62,36.35c0-.44-.18-.64-.64-.64h-.53c-.39,0-.78.07-1.17.07-.53,0-.51-.35-.51-1.13,0-.83-.02-1.13.51-1.13.39,0,.78.05,1.17.05h.85c.44,0,.9-.05,1.36-.05.76,0,1.29.18,1.29,1.06,0,.64-.05,1.29-.05,1.93v3.27c0,1.47.34,2.41,1.86,2.85,1.52.44,4.99.44,6.65.44s3.31,0,4.94-.07c.21,0,1.13-.07,1.22-.07.44,0,.46.3.46.67,0,1.47-.51,1.61-1.56,1.61h-5.7c-3.56,0-5.73-.16-6.62-.46-.94-.32-1.59-.76-2.16-1.56-.11-.14-.23-.28-.44-.28-.14,0-.23.07-.34.16-.62.53-1.29,1.04-1.93,1.54-.23.16-.3.28-.34.55-.02.16-.16.28-.32.28-.18,0-.25-.14-.37-.37-.16-.3-.94-1.86-.94-2.07,0-.3.67-.55.9-.64.32-.16,1.59-.92,1.96-1.17.41-.28.48-.46.48-.97v-3.86h-.03ZM262.8,30.83c-.23,0-.34-.21-.48-.37-.83-1.06-2-2.37-2.97-3.26-.14-.14-.32-.28-.32-.46,0-.39,1.04-1.24,1.4-1.24.21,0,.39.21.55.34.57.53,1.1,1.08,1.63,1.66.32.34,1.66,1.75,1.66,2.14,0,.34-.94,1.2-1.47,1.2h0ZM270.06,30.9l.14-.37c.02-.07.05-.14.05-.21,0-.28-.21-.34-.46-.37h-2c-.76,0-1.52.05-2.28.05-.51,0-.48-.3-.48-.94s-.02-.92.51-.92c.74,0,1.5.05,2.25.05h.11c.21-.02.39-.09.39-.32,0-.09-.02-.14-.05-.21-.23-.48-.6-1.13-.87-1.59-.07-.09-.14-.21-.14-.34,0-.46,1.15-.69,1.52-.69.39,0,.57.23,1.08,1.2.14.25.62,1.15.62,1.38,0,.21-.09.3-.25.39-.05.02-.05.07-.05.09,0,.07.02.09.09.09h2.05c.48,0,.69-.09.9-.51.39-.8.62-1.47.92-2.3.02-.14.09-.32.25-.32.25,0,1.68.51,1.98.64.14.07.37.16.37.34,0,.21-.18.23-.34.23-.23.02-.3.09-.37.23-.21.37-.39.76-.62,1.15-.02.07-.07.11-.07.21,0,.23.18.3.39.32h.55c.74,0,1.49-.05,2.25-.05.51,0,.48.28.48.94s.02.92-.48.92c-.76,0-1.52-.05-2.25-.05h-2.85c-.39,0-.55.09-.74.46-.05.14-.09.25-.16.39-.02.05-.05.12-.05.18,0,.34.32.37.44.37h1.45c.55,0,1.08-.02,1.63-.02.69,0,1.22.12,1.22.94,0,.51-.02,1.01-.02,1.52v5.68c0,.57.05,1.26.05,1.68,0,.76-.58.71-1.15.71-.28,0-.53,0-.78-.05-.18-.05-.46-.14-.62-.21h-5.56c-.18.07-.46.16-.64.21-.23.05-.53.05-.78.05-.58,0-1.15.05-1.15-.71,0-.46.07-1.08.07-1.68v-5.68c0-.51-.05-.99-.05-1.5,0-.83.51-.97,1.22-.97.51,0,1.04.05,1.54.02.39,0,.57-.09.76-.46l-.02.03ZM274.41,34.23c.32,0,.55-.23.55-.55v-.14c0-.32-.23-.55-.55-.55h-5.06c-.32,0-.55.23-.55.55v.14c0,.32.23.55.55.55h5.06ZM269.35,35.77c-.32,0-.55.23-.55.55v.18c0,.32.23.55.55.55h5.06c.32,0,.55-.23.55-.55v-.18c0-.32-.23-.55-.55-.55h-5.06ZM269.35,38.58c-.39,0-.55.16-.55.53v.23c0,.39.16.55.55.55h5.06c.37,0,.55-.16.55-.55v-.23c0-.37-.18-.53-.55-.53h-5.06Z"/>
      <path class="cls-5" d="M286.92,35.52c-.23.16-.57.39-.85.39-.55,0-1.38-1.2-1.38-1.56,0-.23.44-.53.64-.62,2.39-1.5,4.76-3.5,6.55-5.66.51-.62,1.52-1.93,1.86-2.6.09-.16.16-.35.37-.35.3,0,1.22.28,1.77.39.69.14.85.23.85.48,0,.16-.12.21-.25.28-.07.02-.14.09-.14.16,0,.05.02.07.05.09,1.98,2.74,5.24,5.38,8.21,7.01.6.32.69.41.69.64,0,.48-.94,1.66-1.4,1.66-.51,0-2.69-1.68-3.2-2.07-2-1.54-3.93-3.31-5.45-5.29-.09-.14-.21-.23-.39-.23-.16,0-.25.09-.37.18-2.21,2.78-4.64,5.08-7.57,7.08v.02ZM297.22,38.58c-.44,0-.64.18-.64.64v3.13c0,.44.21.62.64.62h4.48c.94,0,1.89-.05,2.83-.05.55,0,.55.23.55,1.13s0,1.1-.53,1.1c-.97,0-1.91-.05-2.85-.05h-13.57c-.94,0-1.91.05-2.85.05-.55,0-.53-.28-.53-1.1s-.02-1.13.53-1.13c.9,0,1.77.07,2.64.05.46-.02.64-.18.64-.62v-4.74c0-.57,0-1.17-.07-1.66-.02-.07-.02-.14-.02-.23,0-.25.16-.3.39-.3.53,0,1.04.07,1.56.09.58.05.99.07.99.34,0,.21-.16.25-.3.34-.28.18-.3.53-.3,1.4v4.74c0,.44.18.62.64.62h2.18c.44,0,.62-.18.62-.62v-8.42c0-.41-.02-.83-.07-1.24,0-.07-.02-.16-.02-.23,0-.25.18-.3.41-.3.44,0,1.5.09,2.05.11.21.02.48.05.48.3,0,.16-.09.21-.28.32-.25.16-.28.71-.28,1.22v1.75c0,.44.21.62.64.62h1.98c.81,0,1.61-.05,2.42-.05.53,0,.53.23.53,1.1s0,1.08-.53,1.08c-.8,0-1.61-.05-2.42-.05h-1.98l.04.04Z"/>
      <path class="cls-5" d="M326.95,25.88c.05-.11.12-.23.25-.23.09,0,2.07.76,2.07,1.08,0,.18-.25.21-.3.21-.18.02-.32.07-.44.21-.21.41-.69,1.22-.92,1.61-.05.07-.07.12-.07.21,0,.23.16.3.34.3.83,0,1.66-.05,2.48-.05.51,0,.51.25.51.97s0,.94-.51.94c-.97,0-1.91-.05-2.88-.05h-.9c-.07,0-.07.05-.02.09.02.05.07.09.07.14,0,.16-.21.21-.32.25-.25.07-.32.09-.46.28-.09.21-.21.44-.3.64-.02.07-.07.14-.07.21,0,.25.21.32.44.34h.6c.94,0,1.86-.05,2.81-.05.53,0,.51.3.51.92,0,.55.02.9-.48.9-.94,0-1.89-.05-2.83-.05h-3.91c-.3,0-.44.11-.44.44v.18c0,.3.12.44.44.44h2.74c.87,0,1.75-.05,2.64-.05.53,0,.53.25.53.9s0,.9-.53.9c-.9,0-1.77-.05-2.64-.05h-2.74c-.3,0-.44.12-.44.41v.21c0,.3.12.44.44.44h5.15c.97,0,1.93-.05,2.92-.05.53,0,.53.23.53.92s0,.94-.51.94c-.99,0-1.98-.05-2.94-.05h-2.94c-.12,0-.23.05-.23.18,0,.07.02.12.09.16,1.75,1.2,3.7,2.12,5.73,2.76.53.16.76.28.76.55,0,.48-.83,1.52-1.29,1.52s-2.25-.83-2.74-1.06c-1.59-.76-3.15-1.79-4.48-2.9-.07-.07-.14-.09-.23-.09-.18,0-.23.16-.25.32v.21c0,1.01.07,2.05.07,3.08,0,.78-.25.8-1.31.8s-1.29-.02-1.29-.78c0-1.04.07-2.07.07-3.1v-.16c-.02-.18-.07-.32-.28-.32-.07,0-.14.02-.21.07-1.61,1.29-3.38,2.37-5.31,3.24-.48.21-1.56.71-1.91.71-.48,0-1.26-1.13-1.26-1.59,0-.28.3-.37.8-.53,1.93-.64,3.93-1.63,5.66-2.74.05-.05.09-.09.09-.18,0-.12-.12-.16-.21-.16h-2.78c-.97,0-1.95.05-2.94.05-.51,0-.51-.28-.51-.94s0-.92.51-.92c.99,0,1.98.05,2.94.05h4.97c.3,0,.44-.14.44-.44v-.18c0-.32-.14-.44-.44-.44h-2.6c-.87,0-1.77.05-2.64.05-.55,0-.53-.25-.53-.9s0-.9.53-.9c.87,0,1.77.05,2.64.05h2.6c.3,0,.44-.12.44-.44v-.18c0-.32-.14-.44-.44-.44h-3.7c-.94,0-1.89.05-2.83.05-.51,0-.48-.37-.48-.9,0-.62-.02-.92.51-.92.94,0,1.86.05,2.81.05h.53s.41,0,.41-.34c0-.07-.02-.14-.05-.21-.14-.3-.28-.57-.44-.87-.23-.39-.39-.53-.85-.53h-.6c-.97,0-1.91.05-2.88.05-.51,0-.51-.25-.51-.94s0-.97.51-.97c.76,0,1.52.05,2.28.05h.25c.16,0,.32-.07.32-.28,0-.09,0-.11-.05-.21-.44-.67-.9-1.29-1.4-1.89-.07-.09-.21-.25-.21-.37,0-.34,1.2-.9,1.61-.9.25,0,.34.12.6.44.05.07.12.16.21.28.25.3,1.45,1.86,1.45,2.14s-.51.51-.74.6c-.02.02-.05.05-.05.09,0,.07.05.09.12.09h1.13c.44,0,.64-.18.64-.62v-.71c0-.74-.02-1.47-.09-2.21,0-.07-.02-.14-.02-.21,0-.28.16-.35.39-.35.32,0,1.56.14,1.93.18.23.02.55.05.55.32,0,.16-.09.21-.28.35-.25.21-.28.6-.28,1.26v1.36c0,.44.18.62.64.62h.67c.46,0,.64-.18.64-.62v-1.31c0-.53,0-1.06-.09-1.59v-.21c0-.28.16-.32.39-.32.3,0,1.52.11,1.86.16.21.02.6.05.6.32,0,.14-.11.21-.28.32-.23.18-.25.48-.25,1.06v1.56c0,.37.14.6.55.62.16-.02.23-.07.32-.21.64-1.04,1.29-2.07,1.79-3.17l.03.03ZM322.19,33.03c.51,0,.64-.09.92-.53.14-.28.28-.58.44-.87.02-.05.05-.12.05-.18,0-.28-.21-.34-.44-.37h-4.16c-.23.02-.41.09-.41.34,0,.07.02.14.05.21.58,1.15.58,1.4,1.17,1.4h2.39-.01Z"/>
      <path class="cls-5" d="M83.94,59.28c0,1.83-1.41,2.91-3.52,2.91-1.11,0-2.17-.32-2.95-.75-.21-.12-.3-.21-.3-.34,0-.08.03-.17.09-.3l.19-.42c.09-.19.17-.3.27-.3.07,0,.17.06.3.15.69.45,1.59.75,2.52.75,1.23,0,2.05-.62,2.05-1.59s-.97-1.49-2.23-2.03c-1.48-.63-2.97-1.32-2.97-3.04s1.4-2.73,3.52-2.73c.87,0,1.75.22,2.35.5.23.1.31.19.31.33,0,.08-.02.17-.08.3l-.19.48c-.09.23-.15.32-.25.32-.06,0-.17-.04-.3-.12-.49-.3-1.24-.54-2.02-.54-1.27,0-1.96.6-1.96,1.42,0,.9.77,1.3,2.17,1.92,1.56.67,3,1.38,3,3.09h0Z"/>
      <path class="cls-5" d="M91.03,62.08c-.36,0-.45-.06-.45-.43,0-.2-.03-.27-.1-.27-.04,0-.12.03-.23.11-.58.42-1.31.69-2.1.69-1.51,0-2.46-1.03-2.46-2.56v-2.61c0-.67-.03-1.75-.03-1.95,0-.32.09-.38.45-.38h.43c.36,0,.45.06.45.38,0,.19-.03,1.27-.03,1.95v2.29c0,1.05.54,1.71,1.59,1.71.52,0,1.08-.18,1.62-.58.26-.21.33-.34.33-.69v-2.73c0-.67-.03-1.75-.03-1.95,0-.32.09-.38.45-.38h.42c.36,0,.45.06.45.38,0,.19-.03,1.27-.03,1.95v2.76c0,.67.03,1.75.03,1.95,0,.32-.09.38-.45.38h-.31v-.02Z"/>
      <path class="cls-5" d="M95.37,59.76c0,.67.03,1.75.03,1.95,0,.32-.09.38-.45.38h-.43c-.36,0-.45-.06-.45-.38,0-.19.03-1.27.03-1.95v-2.75c0-.69-.03-1.77-.03-1.96,0-.32.09-.38.45-.38h.33c.36,0,.44.06.44.43,0,.2.03.27.1.27.04,0,.12-.03.23-.11.58-.42,1.31-.69,2.1-.69,1.53,0,2.46,1.05,2.46,2.56v2.61c0,.67.03,1.75.03,1.95,0,.32-.09.38-.45.38h-.42c-.36,0-.45-.06-.45-.38,0-.19.03-1.27.03-1.95v-2.22c0-1.05-.55-1.71-1.6-1.71-.52,0-1.06.17-1.59.57-.27.21-.34.34-.34.69v2.67l-.02.02Z"/>
      <path class="cls-5" d="M105.91,54.59c1.83,0,3.01,1.33,3.01,3.37,0,2.9-2.14,4.21-4.14,4.21-.73,0-1.4-.12-1.94-.31-.36-.11-.45-.25-.45-.6,0-.19.02-1.23.02-1.9v-5.76c0-.69-.03-1.77-.03-1.96,0-.32.09-.38.45-.38h.43c.36,0,.45.06.45.38,0,.19-.03,1.27-.03,1.96v1.39c0,.21.03.32.12.32.04,0,.14-.04.24-.12.51-.34,1.15-.6,1.86-.6h.01ZM107.61,58.12c0-1.44-.85-2.29-2.01-2.29-.58,0-1.12.21-1.56.54-.27.21-.34.35-.34.69v3.4c0,.35.09.45.43.53.21.04.47.06.75.06,1.33,0,2.73-1.03,2.73-2.92h0Z"/>
      <path class="cls-5" d="M116.04,62.08c-.36,0-.45-.06-.45-.43,0-.2-.03-.27-.1-.27-.04,0-.12.03-.23.11-.58.42-1.31.69-2.1.69-1.51,0-2.46-1.03-2.46-2.56v-2.61c0-.67-.03-1.75-.03-1.95,0-.32.09-.38.45-.38h.43c.36,0,.45.06.45.38,0,.19-.03,1.27-.03,1.95v2.29c0,1.05.54,1.71,1.59,1.71.52,0,1.08-.18,1.62-.58.26-.21.33-.34.33-.69v-2.73c0-.67-.03-1.75-.03-1.95,0-.32.09-.38.45-.38h.42c.36,0,.45.06.45.38,0,.19-.03,1.27-.03,1.95v2.76c0,.67.03,1.75.03,1.95,0,.32-.09.38-.45.38h-.31v-.02Z"/>
      <path class="cls-5" d="M122.1,60.74c1.4.24,3.04.6,3.04,2.1,0,1.17-1.16,2.28-3.79,2.28-2.1,0-3.18-.75-3.18-1.88,0-.72.47-1.35,1.14-1.79.19-.13.24-.18.24-.25s-.06-.15-.17-.27c-.18-.2-.27-.42-.27-.72s.13-.61.3-.82c.1-.14.17-.21.17-.29,0-.09-.06-.17-.19-.3-.39-.41-.6-.95-.6-1.58,0-1.44,1.02-2.61,3.04-2.61.12,0,.24,0,.36.02.44.04.96.06,1.4.06h.33c.4,0,.87-.01,1.06-.01.31,0,.38.08.38.43v.24c0,.34-.04.43-.31.43-.1,0-.24-.01-.35-.01-.15,0-.24.04-.24.18,0,.04,0,.12.04.21.09.25.13.54.13.84,0,1.43-.94,2.6-3.01,2.6-.3,0-.57-.03-.83-.08-.06-.02-.1-.02-.15-.02-.18,0-.27.09-.33.27,0,.04-.03.12-.03.17,0,.43.69.62,1.81.79h.01ZM120.84,61.63c-.16,0-.28.06-.48.17-.49.32-.91.75-.91,1.28,0,.64.78,1,2.02,1,1.44,0,2.37-.5,2.37-1.12,0-.69-.93-.95-2.02-1.14-.24-.04-.48-.09-.71-.13-.1-.03-.19-.05-.27-.05h0ZM120.01,57.27c0,.75.6,1.33,1.65,1.33,1.3,0,1.75-.81,1.75-1.54,0-.78-.61-1.35-1.62-1.35-1.24,0-1.78.78-1.78,1.56Z"/>
      <path class="cls-5" d="M132.06,62.08c-.36,0-.45-.06-.45-.43,0-.2-.03-.27-.1-.27-.04,0-.12.03-.23.11-.58.42-1.31.69-2.1.69-1.51,0-2.46-1.03-2.46-2.56v-2.61c0-.67-.03-1.75-.03-1.95,0-.32.09-.38.45-.38h.43c.36,0,.45.06.45.38,0,.19-.03,1.27-.03,1.95v2.29c0,1.05.54,1.71,1.59,1.71.52,0,1.08-.18,1.62-.58.26-.21.33-.34.33-.69v-2.73c0-.67-.03-1.75-.03-1.95,0-.32.09-.38.45-.38h.42c.36,0,.45.06.45.38,0,.19-.03,1.27-.03,1.95v2.76c0,.67.03,1.75.03,1.95,0,.32-.09.38-.45.38h-.31v-.02Z"/>
      <path class="cls-5" d="M136.41,59.76c0,.67.03,1.75.03,1.95,0,.32-.09.38-.45.38h-.43c-.36,0-.45-.06-.45-.38,0-.19.03-1.27.03-1.95v-2.75c0-.69-.03-1.77-.03-1.96,0-.32.09-.38.45-.38h.33c.36,0,.44.06.44.43,0,.2.03.27.1.27.04,0,.12-.03.23-.11.58-.42,1.31-.69,2.1-.69,1.53,0,2.46,1.05,2.46,2.56v2.61c0,.67.03,1.75.03,1.95,0,.32-.09.38-.45.38h-.42c-.36,0-.45-.06-.45-.38,0-.19.03-1.27.03-1.95v-2.22c0-1.05-.55-1.71-1.6-1.71-.52,0-1.06.17-1.59.57-.27.21-.34.34-.34.69v2.67l-.02.02Z"/>
      <path class="cls-5" d="M148.28,60.07c0,1.47-1.3,2.12-2.77,2.12-.85,0-1.68-.23-2.28-.56-.21-.12-.3-.21-.3-.34,0-.08.03-.18.09-.3l.15-.29c.12-.22.17-.3.26-.3.07,0,.18.06.31.15.48.31,1.17.55,1.83.55.83,0,1.43-.34,1.43-.99,0-.58-.72-.88-1.53-1.2-1.09-.4-2.37-.9-2.37-2.25,0-1.26,1.05-2.08,2.71-2.08.72,0,1.38.15,1.86.36.23.11.33.18.33.33,0,.08-.03.17-.08.29l-.15.36c-.09.22-.15.33-.25.33-.08,0-.18-.04-.31-.12-.41-.23-.95-.39-1.5-.39-.75,0-1.31.33-1.31.88,0,.58.75.89,1.62,1.22,1.06.4,2.26.9,2.26,2.23h0Z"/>
      <path class="cls-5" d="M151.32,59.76c0,.66.03,1.75.03,1.95,0,.32-.09.38-.45.38h-.43c-.36,0-.45-.06-.45-.38,0-.19.03-1.26.03-1.95v-6.17c0-.67-.03-1.72-.03-1.96,0-.32.09-.38.45-.38h.43c.36,0,.45.06.45.38,0,.22-.03,1.27-.03,1.96v1.41c0,.21.03.31.12.31.04,0,.14-.04.24-.12.55-.39,1.23-.61,1.98-.61,1.53,0,2.46,1.05,2.46,2.56v2.61c0,.69.03,1.74.03,1.95,0,.32-.09.38-.45.38h-.42c-.36,0-.45-.06-.45-.38,0-.21.03-1.29.03-1.95v-2.22c0-1.05-.55-1.71-1.6-1.71-.52,0-1.06.17-1.59.57-.27.21-.34.34-.34.69v2.67h-.01Z"/>
      <path class="cls-5" d="M159.87,52.67c0,.52-.31.96-.9.96-.47,0-.84-.33-.84-.83s.33-.92.9-.92c.48,0,.84.31.84.78h0ZM158.78,62.08c-.36,0-.45-.06-.45-.38,0-.24.03-1.41.03-1.95v-2.75c0-.69-.03-1.75-.03-1.96,0-.32.09-.38.45-.38h.44c.36,0,.45.06.45.38,0,.19-.03,1.26-.03,1.96v2.75c0,.61.03,1.74.03,1.95,0,.32-.09.38-.45.38h-.44Z"/>
      <path class="cls-5" d="M173.84,59.7c-.24.65-.46,1.26-.71,1.95-.12.38-.18.43-.57.43h-.17c-.41,0-.45-.06-.56-.45-.21-.67-.4-1.29-.63-1.96l-1.78-5.26c-.26-.75-.5-1.47-.81-2.28-.04-.12-.06-.2-.06-.25,0-.15.1-.18.36-.18h.66c.4,0,.48.06.58.45.23.78.44,1.47.66,2.19l1.62,5.01c.04.12.09.18.15.18.04,0,.1-.06.15-.17l1.86-4.98c.28-.77.54-1.46.81-2.27.12-.36.2-.42.52-.42h.14c.33,0,.4.06.52.42.27.81.52,1.52.79,2.25l1.83,4.98c.04.12.09.17.15.17.04,0,.09-.06.14-.18l1.63-5c.23-.72.45-1.39.67-2.19.12-.39.2-.45.6-.45h.58c.25,0,.36.03.36.18,0,.06,0,.13-.06.25-.31.82-.57,1.53-.81,2.26l-1.81,5.29c-.23.66-.42,1.27-.63,1.96-.12.38-.16.43-.57.43h-.17c-.4,0-.45-.06-.58-.43-.23-.69-.44-1.3-.69-1.95l-1.92-5.19c-.04-.12-.1-.18-.15-.18-.06,0-.12.06-.17.18l-1.96,5.19.03.02Z"/>
      <path class="cls-5" d="M189.04,62.08c-.34,0-.42-.06-.42-.4,0-.21-.03-.3-.1-.3-.06,0-.1.03-.23.11-.63.42-1.42.69-2.22.69-1.23,0-2.15-.63-2.15-1.9,0-1.91,2.38-2.67,4.23-2.83.29-.03.39-.08.39-.27,0-.22-.1-.64-.27-.87-.24-.33-.66-.54-1.25-.54-.66,0-1.4.25-1.92.57-.13.09-.23.13-.3.13-.1,0-.18-.09-.27-.3l-.14-.33c-.06-.13-.09-.22-.09-.3,0-.13.09-.21.31-.31.69-.36,1.67-.63,2.53-.63,2.07,0,2.66,1.24,2.62,2.94l-.03,2.1c-.02.78.03,1.73.03,2.13,0,.27-.09.33-.44.33h-.31l.03-.02ZM188.28,58.5c-.23,0-.58.08-.89.15-1.2.29-2.17.78-2.17,1.54,0,.55.45.88,1.12.88.61,0,1.3-.25,1.83-.58.28-.2.36-.31.36-.66l.02-.93c0-.3-.05-.41-.27-.41h0Z"/>
      <path class="cls-5" d="M195.76,61.57c0,.38-.09.46-.45.51-.21.03-.44.04-.65.04-1.71,0-2.34-.82-2.34-2.31v-3.62c0-.27-.1-.36-.29-.36-.25,0-.54.01-.65.01-.28,0-.36-.1-.36-.45v-.29c0-.34.08-.45.36-.45.1,0,.38.01.65.01.18,0,.29-.08.29-.45,0-.57-.02-1.15-.02-1.35,0-.32.08-.38.44-.38h.42c.36,0,.44.06.44.38,0,.2-.02.78-.02,1.35,0,.38.08.45.45.45h.23c.33,0,.93-.01,1.03-.01.39,0,.47.06.47.45v.29c0,.39-.08.45-.47.45-.12,0-.71-.01-1.03-.01h-.23c-.38,0-.45.08-.45.45v3.37c0,.98.42,1.29,1.25,1.29.23,0,.54-.06.71-.06.19,0,.23.09.23.39v.29h-.01Z"/>
      <path class="cls-5" d="M202.85,61.03c.06.13.09.22.09.3,0,.14-.09.23-.3.33-.65.33-1.48.51-2.25.51-2.46,0-3.54-1.71-3.54-3.66,0-2.22,1.41-3.93,3.6-3.93,1.85,0,2.85,1.36,2.85,3.49,0,.56-.1.66-.45.66h-4.33c-.29,0-.39.06-.39.27,0,.17.09.58.25.87.42.77,1.05,1.17,2.16,1.17.57,0,1.14-.15,1.6-.4.15-.08.24-.12.33-.12.1,0,.18.09.29.31l.09.2h0ZM202.03,57.37c0-.17-.08-.49-.18-.7-.25-.56-.72-.92-1.42-.92-.85,0-1.48.4-1.88,1.02-.13.22-.27.54-.27.69,0,.13.1.18.35.18h3.01c.29,0,.39-.06.39-.27Z"/>
      <path class="cls-5" d="M206.42,59.76c0,.67.03,1.75.03,1.95,0,.32-.09.38-.45.38h-.43c-.36,0-.45-.06-.45-.38,0-.19.03-1.27.03-1.95v-2.75c0-.69-.03-1.77-.03-1.96,0-.32.09-.38.45-.38h.25c.39,0,.48.08.48.46,0,.3.03.43.12.43.06,0,.11-.03.22-.13.65-.57,1.54-.84,1.98-.84.24,0,.3.1.3.42v.78c0,.15-.06.22-.18.22s-.21-.01-.33-.01c-.54,0-1.14.21-1.67.61-.25.2-.33.36-.33.69v2.45h0Z"/>
      <path class="cls-5" d="M224.07,59.28c0,1.83-1.41,2.91-3.52,2.91-1.11,0-2.17-.32-2.96-.75-.21-.12-.3-.21-.3-.34,0-.08.03-.17.09-.3l.2-.42c.09-.19.17-.3.27-.3.08,0,.17.06.3.15.69.45,1.59.75,2.52.75,1.23,0,2.05-.62,2.05-1.59s-.97-1.49-2.24-2.03c-1.48-.63-2.97-1.32-2.97-3.04s1.4-2.73,3.53-2.73c.87,0,1.75.22,2.35.5.23.1.32.19.32.33,0,.08-.02.17-.08.3l-.2.48c-.09.23-.15.32-.25.32-.06,0-.17-.04-.3-.12-.5-.3-1.25-.54-2.03-.54-1.27,0-1.96.6-1.96,1.42,0,.9.77,1.3,2.17,1.92,1.56.67,3,1.38,3,3.09h.01Z"/>
      <path class="cls-5" d="M231.16,62.08c-.36,0-.45-.06-.45-.43,0-.2-.03-.27-.11-.27-.04,0-.12.03-.22.11-.58.42-1.31.69-2.1.69-1.51,0-2.46-1.03-2.46-2.56v-2.61c0-.67-.03-1.75-.03-1.95,0-.32.09-.38.45-.38h.43c.36,0,.45.06.45.38,0,.19-.03,1.27-.03,1.95v2.29c0,1.05.54,1.71,1.59,1.71.53,0,1.08-.18,1.62-.58.25-.21.33-.34.33-.69v-2.73c0-.67-.03-1.75-.03-1.95,0-.32.09-.38.45-.38h.42c.36,0,.45.06.45.38,0,.19-.03,1.27-.03,1.95v2.76c0,.67.03,1.75.03,1.95,0,.32-.09.38-.45.38h-.32v-.02Z"/>
      <path class="cls-5" d="M235.51,62.59c0,.68.03,1.76.03,1.95,0,.32-.09.38-.45.38h-.43c-.36,0-.45-.06-.45-.38,0-.19.03-1.27.03-1.95v-5.58c0-.69-.03-1.77-.03-1.96,0-.32.09-.38.45-.38h.34c.35,0,.42.06.42.4,0,.2.03.29.11.29.04,0,.12-.03.22-.1.53-.39,1.21-.67,1.98-.67,1.83,0,3.01,1.33,3.01,3.37,0,2.9-2.16,4.21-4.12,4.21-.22,0-.45-.01-.67-.06-.09-.01-.15-.01-.21-.01-.2,0-.22.09-.22.38v.12h0ZM239.42,58.12c0-1.44-.85-2.29-2.01-2.29-.58,0-1.12.21-1.56.54-.27.21-.34.35-.34.69v3.4c0,.35.09.45.43.53.21.04.46.06.75.06,1.33,0,2.73-1.03,2.73-2.92h0Z"/>
      <path class="cls-5" d="M243.87,62.59c0,.68.03,1.76.03,1.95,0,.32-.09.38-.45.38h-.43c-.36,0-.45-.06-.45-.38,0-.19.03-1.27.03-1.95v-5.58c0-.69-.03-1.77-.03-1.96,0-.32.09-.38.45-.38h.34c.35,0,.42.06.42.4,0,.2.03.29.11.29.04,0,.12-.03.22-.1.53-.39,1.21-.67,1.98-.67,1.83,0,3.01,1.33,3.01,3.37,0,2.9-2.16,4.21-4.12,4.21-.22,0-.45-.01-.67-.06-.09-.01-.15-.01-.21-.01-.2,0-.22.09-.22.38v.12h0ZM247.78,58.12c0-1.44-.85-2.29-2.01-2.29-.58,0-1.12.21-1.56.54-.27.21-.34.35-.34.69v3.4c0,.35.09.45.43.53.21.04.46.06.75.06,1.33,0,2.73-1.03,2.73-2.92h0Z"/>
      <path class="cls-5" d="M253.49,62.12c-.14.01-.25.01-.38.01-1.62,0-2.21-.64-2.21-2.35v-6.18c0-.69-.03-1.77-.03-1.96,0-.32.09-.38.45-.38h.43c.36,0,.45.06.45.38,0,.19-.03,1.27-.03,1.96v6.07c0,.87.18,1.28,1.07,1.29.13,0,.3-.01.41-.01.15,0,.17.06.17.25v.53c0,.27-.06.36-.33.39h0Z"/>
      <path class="cls-5" d="M257.95,62.83c-.21.51-.42,1.08-.63,1.65-.13.38-.22.43-.63.43h-.54c-.24,0-.34-.03-.34-.13,0-.06.03-.15.09-.27.31-.64.55-1.21.72-1.6l.24-.55c.08-.17.12-.3.12-.42s-.04-.25-.12-.42l-1.91-4.52c-.25-.63-.51-1.23-.82-1.9-.06-.13-.08-.21-.08-.27,0-.12.1-.15.34-.15h.57c.4,0,.48.06.61.43.25.67.48,1.28.72,1.88l1.23,3.01c.06.15.12.24.17.24.06,0,.11-.09.17-.24l1.21-3c.25-.6.48-1.2.72-1.89.14-.38.21-.43.62-.43h.5c.24,0,.34.03.34.15,0,.06-.01.14-.08.27-.31.71-.55,1.32-.81,1.89l-2.42,5.85h.01Z"/>
      <path class="cls-5" d="M271.35,59.87c-.26.58-.45,1.08-.71,1.82-.14.38-.21.4-.6.4h-.58c-.24,0-.34-.03-.34-.15,0-.06.01-.15.08-.27.43-.93.76-1.74,1.11-2.52l2.12-5.04c.25-.62.54-1.27.81-1.98.15-.38.23-.44.63-.44h.33c.41,0,.48.06.63.44.25.71.54,1.35.79,1.96l2.13,5.04c.36.83.69,1.61,1.12,2.54.06.13.07.21.07.27,0,.12-.1.15-.34.15h-.67c-.41,0-.48-.06-.62-.43-.25-.74-.42-1.16-.67-1.77l-.11-.25c-.07-.19-.19-.31-.52-.31h-4.02c-.33,0-.44.12-.53.31l-.1.24h-.01ZM272.21,57.77c-.04.1-.06.19-.06.25,0,.13.1.17.34.17h3c.24,0,.34-.03.34-.17,0-.06-.01-.15-.06-.25l-1.62-3.92c-.06-.17-.11-.24-.17-.24-.04,0-.11.08-.17.24l-1.62,3.92h.02Z"/>
      <path class="cls-5" d="M285.52,62.08c-.36,0-.45-.06-.45-.43,0-.2-.03-.27-.11-.27-.04,0-.12.03-.22.11-.58.42-1.31.69-2.1.69-1.51,0-2.46-1.03-2.46-2.56v-2.61c0-.67-.03-1.75-.03-1.95,0-.32.09-.38.45-.38h.43c.36,0,.45.06.45.38,0,.19-.03,1.27-.03,1.95v2.29c0,1.05.54,1.71,1.59,1.71.53,0,1.08-.18,1.62-.58.25-.21.33-.34.33-.69v-2.73c0-.67-.03-1.75-.03-1.95,0-.32.09-.38.45-.38h.42c.36,0,.45.06.45.38,0,.19-.03,1.27-.03,1.95v2.76c0,.67.03,1.75.03,1.95,0,.32-.09.38-.45.38h-.32v-.02Z"/>
      <path class="cls-5" d="M292.44,61.57c0,.38-.09.46-.45.51-.21.03-.44.04-.65.04-1.71,0-2.34-.82-2.34-2.31v-3.62c0-.27-.1-.36-.29-.36-.25,0-.54.01-.64.01-.29,0-.36-.1-.36-.45v-.29c0-.34.08-.45.36-.45.1,0,.38.01.64.01.18,0,.29-.08.29-.45,0-.57-.01-1.15-.01-1.35,0-.32.08-.38.43-.38h.42c.36,0,.44.06.44.38,0,.2-.02.78-.02,1.35,0,.38.08.45.45.45h.23c.33,0,.93-.01,1.03-.01.39,0,.47.06.47.45v.29c0,.39-.08.45-.47.45-.12,0-.71-.01-1.03-.01h-.23c-.38,0-.45.08-.45.45v3.37c0,.98.42,1.29,1.25,1.29.23,0,.54-.06.71-.06.2,0,.23.09.23.39v.29h-.01Z"/>
      <path class="cls-5" d="M295.39,59.76c0,.66.03,1.75.03,1.95,0,.32-.09.38-.45.38h-.43c-.36,0-.45-.06-.45-.38,0-.19.03-1.26.03-1.95v-6.17c0-.67-.03-1.72-.03-1.96,0-.32.09-.38.45-.38h.43c.36,0,.45.06.45.38,0,.22-.03,1.27-.03,1.96v1.41c0,.21.03.31.12.31.05,0,.14-.04.24-.12.55-.39,1.23-.61,1.98-.61,1.53,0,2.46,1.05,2.46,2.56v2.61c0,.69.03,1.74.03,1.95,0,.32-.09.38-.45.38h-.42c-.36,0-.45-.06-.45-.38,0-.21.03-1.29.03-1.95v-2.22c0-1.05-.55-1.71-1.6-1.71-.53,0-1.07.17-1.59.57-.27.21-.34.34-.34.69v2.67h0Z"/>
      <path class="cls-5" d="M309.22,58.23c0,2.44-1.56,3.94-3.75,3.94-2,0-3.51-1.36-3.51-3.61s1.39-3.97,3.76-3.97c1.96,0,3.5,1.39,3.5,3.64ZM303.29,58.57c0,1.53.94,2.47,2.22,2.47,1.37,0,2.38-1.06,2.38-2.73,0-1.56-.97-2.49-2.24-2.49-1.54,0-2.37,1.19-2.37,2.75h0Z"/>
      <path class="cls-5" d="M312.35,59.76c0,.67.03,1.75.03,1.95,0,.32-.09.38-.45.38h-.43c-.36,0-.45-.06-.45-.38,0-.19.03-1.27.03-1.95v-2.75c0-.69-.03-1.77-.03-1.96,0-.32.09-.38.45-.38h.25c.39,0,.48.08.48.46,0,.3.03.43.12.43.06,0,.1-.03.22-.13.64-.57,1.54-.84,1.98-.84.24,0,.3.1.3.42v.78c0,.15-.06.22-.18.22s-.21-.01-.33-.01c-.54,0-1.14.21-1.67.61-.25.2-.33.36-.33.69v2.45h0Z"/>
      <path class="cls-5" d="M317.91,52.67c0,.52-.32.96-.9.96-.46,0-.84-.33-.84-.83s.33-.92.9-.92c.48,0,.84.31.84.78h0ZM316.81,62.08c-.36,0-.45-.06-.45-.38,0-.24.03-1.41.03-1.95v-2.75c0-.69-.03-1.75-.03-1.96,0-.32.09-.38.45-.38h.44c.36,0,.45.06.45.38,0,.19-.03,1.26-.03,1.96v2.75c0,.61.03,1.74.03,1.95,0,.32-.09.38-.45.38h-.44Z"/>
      <path class="cls-5" d="M323.85,61.57c0,.38-.09.46-.45.51-.21.03-.43.04-.64.04-1.71,0-2.34-.82-2.34-2.31v-3.62c0-.27-.11-.36-.29-.36-.25,0-.54.01-.65.01-.28,0-.36-.1-.36-.45v-.29c0-.34.08-.45.36-.45.11,0,.38.01.65.01.18,0,.29-.08.29-.45,0-.57-.02-1.15-.02-1.35,0-.32.08-.38.44-.38h.42c.36,0,.43.06.43.38,0,.2-.01.78-.01,1.35,0,.38.08.45.45.45h.22c.33,0,.93-.01,1.04-.01.39,0,.46.06.46.45v.29c0,.39-.08.45-.46.45-.12,0-.71-.01-1.04-.01h-.22c-.38,0-.45.08-.45.45v3.37c0,.98.42,1.29,1.25,1.29.22,0,.54-.06.71-.06.19,0,.22.09.22.39v.29h0Z"/>
      <path class="cls-5" d="M328.94,62.83c-.21.51-.42,1.08-.63,1.65-.13.38-.22.43-.63.43h-.54c-.24,0-.34-.03-.34-.13,0-.06.03-.15.09-.27.31-.64.55-1.21.72-1.6l.24-.55c.08-.17.12-.3.12-.42s-.04-.25-.12-.42l-1.91-4.52c-.25-.63-.51-1.23-.82-1.9-.06-.13-.08-.21-.08-.27,0-.12.1-.15.34-.15h.57c.4,0,.48.06.61.43.25.67.48,1.28.72,1.88l1.23,3.01c.06.15.12.24.17.24.06,0,.11-.09.17-.24l1.21-3c.25-.6.48-1.2.72-1.89.14-.38.21-.43.62-.43h.5c.24,0,.34.03.34.15,0,.06-.01.14-.08.27-.31.71-.55,1.32-.81,1.89l-2.42,5.85h.01Z"/>
    </g>
    <path class="cls-2" d="M63.02,31.66H8.29c1.94-13.37,13.47-23.66,27.37-23.66s24.61,9.59,27.13,22.27h8.12C68.3,13.15,53.48,0,35.65,0,15.99,0,0,15.99,0,35.65c0,1.35.08,2.68.23,4h62.79c-1.94,13.37-13.47,23.66-27.37,23.66s-24.6-9.58-27.12-22.25H.41c2.61,17.1,17.42,30.25,35.24,30.25,19.66,0,35.65-15.99,35.65-35.65,0-1.35-.08-2.68-.23-4h-8.06Z"/>
    <g>
      <path class="cls-1" d="M5.25,41.06h-.1c2.57,14.52,15.26,25.58,30.51,25.58,16.86,0,30.62-13.54,30.98-30.33H4.68c.03,1.61.19,3.2.47,4.74h.1,0Z"/>
      <path class="cls-6" d="M67.96,34.99H4.68c.36-16.78,14.11-30.33,30.98-30.33,15.25,0,27.95,11.08,30.51,25.6h1.35c-2.58-15.26-15.88-26.93-31.86-26.93C17.83,3.33,3.33,17.83,3.33,35.65c0,.23.01.44.02.67h63.28c-.36,16.78-14.11,30.33-30.98,30.33-15.25,0-27.94-11.07-30.51-25.58h-1.35c2.58,15.26,15.88,26.92,31.86,26.92,17.82,0,32.32-14.5,32.32-32.32,0-.22,0-.45,0-.67h0,0Z"/>
    </g>
    <rect class="cls-3" x="31.66" y="19.33" width="8" height="32.64"/>
    <path class="cls-3" d="M26.99,51.97h-12.19c1-.84,9.31-6.42,9.54-15.79.25-10-8.64-16.08-9.54-16.85h12.19c1.05,1.02,4.63,6.85,4.67,16.22.04,9.49-3.63,15.41-4.67,16.42h0Z"/>
    <path class="cls-3" d="M44.32,51.97h12.19c-1-.84-9.31-6.42-9.54-15.79-.25-10,8.64-16.08,9.54-16.85h-12.19c-1.05,1.02-4.63,6.85-4.67,16.22-.04,9.49,3.63,15.41,4.67,16.42h0Z"/>
  </g>
</svg>