<?xml version="1.0" encoding="UTF-8"?>
<svg id="_レイヤー_1" xmlns="http://www.w3.org/2000/svg" version="1.1" viewBox="0 0 170.08 170.08">
  <!-- Generator: Adobe Illustrator 29.3.1, SVG Export Plug-In . SVG Version: 2.1.0 Build 151)  -->
  <defs>
    <style>
      .st0 {
        fill: #fff;
      }

      .st1, .st2 {
        fill: #0e6c8d;
      }

      .st3 {
        fill: none;
      }

      .st2 {
        stroke: #fff;
        stroke-miterlimit: 10;
      }
    </style>
  </defs>
  <path class="st1" d="M143.25,76.54H26.83c4.13-28.43,28.66-50.33,58.21-50.33s52.35,20.4,57.7,47.37h17.28c-5.54-36.4-37.05-64.38-74.98-64.38C43.22,9.2,9.2,43.22,9.2,85.04c0,2.88.18,5.71.49,8.5h133.57c-4.13,28.43-28.66,50.33-58.21,50.33s-52.33-20.38-57.69-47.34H10.07c5.56,36.38,37.06,64.34,74.97,64.34,41.82,0,75.84-34.02,75.84-75.84,0-2.88-.18-5.71-.49-8.5h-17.14Z"/>
  <g>
    <path class="st3" d="M20.36,96.54h-.22c5.46,30.88,32.47,54.42,64.89,54.42,35.87,0,65.13-28.81,65.89-64.51H19.15c.07,3.43.41,6.8,1,10.08h.22,0Z"/>
    <path class="st0" d="M153.77,83.62H19.15c.76-35.7,30.01-64.51,65.89-64.51,32.44,0,59.46,23.56,64.9,54.46h2.88c-5.48-32.47-33.78-57.29-67.78-57.29-37.91,0-68.76,30.84-68.76,68.76,0,.48.03.94.04,1.42h134.61c-.76,35.7-30.01,64.51-65.89,64.51-32.43,0-59.44-23.54-64.89-54.42h-2.88c5.49,32.46,33.78,57.26,67.78,57.26,37.91,0,68.76-30.84,68.76-68.76,0-.47,0-.95-.02-1.42h-.02,0Z"/>
  </g>
  <rect class="st2" x="76.54" y="50.32" width="17.01" height="69.43"/>
  <path class="st2" d="M66.61,119.75h-25.93c2.13-1.79,19.8-13.65,20.3-33.58.53-21.27-18.37-34.21-20.3-35.84h25.93c2.24,2.17,9.84,14.58,9.93,34.51.09,20.18-7.72,32.79-9.93,34.92h0Z"/>
  <path class="st2" d="M103.47,119.75h25.93c-2.13-1.79-19.8-13.65-20.3-33.58-.53-21.27,18.37-34.21,20.3-35.84h-25.93c-2.24,2.17-9.84,14.58-9.93,34.51-.09,20.18,7.72,32.79,9.93,34.92h0Z"/>
</svg>