<?xml version="1.0" encoding="UTF-8"?>
<svg id="_レイヤー_1" xmlns="http://www.w3.org/2000/svg" version="1.1" viewBox="0 0 170.1 170.1">
  <!-- Generator: Adobe Illustrator 29.7.1, SVG Export Plug-In . SVG Version: 2.1.1 Build 8)  -->
  <defs>
    <style>
      .st0 {
        fill: none;
      }

      .st1, .st2 {
        fill: #0e6c8d;
      }

      .st2 {
        stroke: #fff;
        stroke-miterlimit: 10;
      }

      .st3 {
        fill: #fff;
      }
    </style>
  </defs>
  <circle class="st3" cx="84.6" cy="85.1" r="75.7"/>
  <path class="st1" d="M143.2,76.5H26.8c4.1-28.4,28.7-50.3,58.2-50.3s52.3,20.4,57.7,47.4h17.3c-5.5-36.4-37.1-64.4-75-64.4-41.8,0-75.8,34-75.8,75.8s.2,5.7.5,8.5h133.6c-4.1,28.4-28.7,50.3-58.2,50.3s-52.3-20.4-57.7-47.3H10.1c5.6,36.4,37.1,64.3,75,64.3s75.8-34,75.8-75.8-.2-5.7-.5-8.5h-17.1Z"/>
  <g>
    <path class="st0" d="M20.4,96.5h-.2c5.5,30.9,32.5,54.4,64.9,54.4s65.1-28.8,65.9-64.5H19.1c0,3.4.4,6.8,1,10.1h.2,0Z"/>
    <path class="st3" d="M153.8,83.6H19.1c.8-35.7,30-64.5,65.9-64.5s59.5,23.6,64.9,54.5h2.9c-5.5-32.5-33.8-57.3-67.8-57.3S16.3,47.1,16.3,85s0,.9,0,1.4h134.6c-.8,35.7-30,64.5-65.9,64.5s-59.4-23.5-64.9-54.4h-2.9c5.5,32.5,33.8,57.3,67.8,57.3s68.8-30.8,68.8-68.8,0-.9,0-1.4h0,0Z"/>
  </g>
  <rect class="st2" x="76.5" y="50.3" width="17" height="69.4"/>
  <path class="st2" d="M66.6,119.8h-25.9c2.1-1.8,19.8-13.7,20.3-33.6.5-21.3-18.4-34.2-20.3-35.8h25.9c2.2,2.2,9.8,14.6,9.9,34.5,0,20.2-7.7,32.8-9.9,34.9h0Z"/>
  <path class="st2" d="M103.5,119.8h25.9c-2.1-1.8-19.8-13.7-20.3-33.6-.5-21.3,18.4-34.2,20.3-35.8h-25.9c-2.2,2.2-9.8,14.6-9.9,34.5,0,20.2,7.7,32.8,9.9,34.9h0Z"/>
</svg>